<?xml version="1.0" standalone="no"?>
<!DOCTYPE svg PUBLIC "-//W3C//DTD SVG 1.1//EN" "http://www.w3.org/Graphics/SVG/1.1/DTD/svg11.dtd">
<svg xmlns="http://www.w3.org/2000/svg" xmlns:xlink="http://www.w3.org/1999/xlink" width="375" zoomAndPan="magnify" viewBox="0 0 375 374.999991" height="375" preserveAspectRatio="xMidYMid meet" version="1.0"><defs><g/><clipPath id="ae6462a580"><path d="M 102.523438 113.050781 L 272.429688 113.050781 L 272.429688 281.9375 L 102.523438 281.9375 Z M 102.523438 113.050781 " clip-rule="nonzero"/></clipPath><clipPath id="7abd37bc72"><path d="M 72.214844 156 L 90.214844 156 L 90.214844 175 L 72.214844 175 Z M 72.214844 156 " clip-rule="nonzero"/></clipPath><clipPath id="723b978cae"><path d="M 81 147.375 L 90.214844 147.375 L 90.214844 157 L 81 157 Z M 81 147.375 " clip-rule="nonzero"/></clipPath><clipPath id="6a1519c816"><path d="M 284.351562 156 L 302.082031 156 L 302.082031 175 L 284.351562 175 Z M 284.351562 156 " clip-rule="nonzero"/></clipPath><clipPath id="7243fcf2d9"><path d="M 284.351562 147.375 L 294 147.375 L 294 157 L 284.351562 157 Z M 284.351562 147.375 " clip-rule="nonzero"/></clipPath><clipPath id="cbe6d3be8a"><path d="M 132.84375 113 L 242.34375 113 L 242.34375 262.5 L 132.84375 262.5 Z M 132.84375 113 " clip-rule="nonzero"/></clipPath></defs><rect x="-37.5" width="450" fill="#ffffff" y="-37.499999" height="449.999989" fill-opacity="1"/><rect x="-37.5" width="450" fill="#ffffff" y="-37.499999" height="449.999989" fill-opacity="1"/><g fill="#3b1b00" fill-opacity="1"><g transform="translate(88.286871, 145.047925)"><g><path d="M 6.265625 -12.34375 C 6.535156 -12.75 6.890625 -12.804688 7.328125 -12.515625 C 7.773438 -12.222656 7.863281 -11.875 7.59375 -11.46875 L 5.765625 -8.71875 C 5.648438 -8.539062 5.488281 -8.4375 5.28125 -8.40625 C 5.082031 -8.382812 4.890625 -8.429688 4.703125 -8.546875 C 4.265625 -8.835938 4.175781 -9.1875 4.4375 -9.59375 L 4.84375 -10.203125 L -4.84375 -16.625 L -8.90625 -10.46875 L 0.78125 -4.046875 L 1.1875 -4.671875 C 1.457031 -5.078125 1.8125 -5.132812 2.25 -4.84375 C 2.695312 -4.550781 2.785156 -4.203125 2.515625 -3.796875 L 0.703125 -1.0625 C 0.421875 -0.644531 0.0625 -0.582031 -0.375 -0.875 C -0.820312 -1.164062 -0.90625 -1.519531 -0.625 -1.9375 L -0.1875 -2.59375 L -13.859375 -11.65625 L -14.28125 -11.015625 C -14.570312 -10.585938 -14.941406 -10.523438 -15.390625 -10.828125 C -15.847656 -11.128906 -15.929688 -11.492188 -15.640625 -11.921875 L -13.828125 -14.65625 C -13.554688 -15.0625 -13.191406 -15.113281 -12.734375 -14.8125 C -12.285156 -14.507812 -12.195312 -14.15625 -12.46875 -13.75 L -12.890625 -13.109375 L -10.140625 -11.296875 L -6.078125 -17.453125 L -8.828125 -19.265625 L -9.25 -18.625 C -9.519531 -18.21875 -9.878906 -18.164062 -10.328125 -18.46875 C -10.785156 -18.769531 -10.878906 -19.125 -10.609375 -19.53125 L -8.78125 -22.28125 C -8.5 -22.707031 -8.128906 -22.769531 -7.671875 -22.46875 C -7.222656 -22.164062 -7.140625 -21.800781 -7.421875 -21.375 L -7.84375 -20.734375 L 5.828125 -11.671875 Z M 6.265625 -12.34375 "/></g></g></g><g fill="#3b1b00" fill-opacity="1"><g transform="translate(97.80817, 131.00671)"><g><path d="M -7.5 -14.359375 C -6.332031 -15.679688 -4.992188 -16.328125 -3.484375 -16.296875 C -1.984375 -16.265625 -0.566406 -15.65625 0.765625 -14.46875 C 2.890625 -12.59375 4.394531 -11.40625 5.28125 -10.90625 C 6.164062 -10.40625 6.945312 -10.234375 7.625 -10.390625 C 7.976562 -10.523438 8.265625 -10.5 8.484375 -10.3125 C 8.878906 -9.957031 8.914062 -9.597656 8.59375 -9.234375 C 8.269531 -8.867188 7.785156 -8.671875 7.140625 -8.640625 C 6.492188 -8.617188 5.832031 -8.734375 5.15625 -8.984375 C 5.425781 -8.273438 5.476562 -7.476562 5.3125 -6.59375 C 5.15625 -5.707031 4.726562 -4.867188 4.03125 -4.078125 C 2.988281 -2.910156 1.78125 -2.285156 0.40625 -2.203125 C -0.957031 -2.117188 -2.203125 -2.578125 -3.328125 -3.578125 C -4.460938 -4.578125 -5.085938 -5.8125 -5.203125 -7.28125 C -5.328125 -8.75 -4.878906 -10.054688 -3.859375 -11.203125 C -2.847656 -12.347656 -1.628906 -12.976562 -0.203125 -13.09375 C -1.273438 -14.039062 -2.378906 -14.601562 -3.515625 -14.78125 C -4.660156 -14.96875 -5.648438 -14.585938 -6.484375 -13.640625 C -7.328125 -12.691406 -7.601562 -11.863281 -7.3125 -11.15625 C -6.863281 -11 -6.53125 -10.820312 -6.3125 -10.625 C -6.101562 -10.4375 -5.953125 -10.140625 -5.859375 -9.734375 C -5.773438 -9.335938 -5.847656 -9.003906 -6.078125 -8.734375 C -6.316406 -8.460938 -6.617188 -8.351562 -6.984375 -8.40625 C -7.359375 -8.46875 -7.703125 -8.632812 -8.015625 -8.90625 C -8.648438 -9.46875 -8.925781 -10.28125 -8.84375 -11.34375 C -8.769531 -12.414062 -8.320312 -13.421875 -7.5 -14.359375 Z M -2.328125 -4.921875 C -1.484375 -4.179688 -0.523438 -3.84375 0.546875 -3.90625 C 1.617188 -3.96875 2.503906 -4.394531 3.203125 -5.1875 C 3.898438 -5.976562 4.210938 -6.882812 4.140625 -7.90625 C 4.078125 -8.925781 3.65625 -9.785156 2.875 -10.484375 L 2.671875 -10.65625 C 1.835938 -11.394531 0.910156 -11.722656 -0.109375 -11.640625 C -1.140625 -11.566406 -2.007812 -11.128906 -2.71875 -10.328125 C -3.4375 -9.523438 -3.757812 -8.609375 -3.6875 -7.578125 C -3.625 -6.554688 -3.171875 -5.671875 -2.328125 -4.921875 Z M -2.328125 -4.921875 "/></g></g></g><g fill="#3b1b00" fill-opacity="1"><g transform="translate(107.717696, 119.842941)"><g><path d="M 2.359375 -4.109375 L 3.046875 -4.671875 C 3.210938 -4.828125 3.40625 -4.890625 3.625 -4.859375 C 3.84375 -4.828125 4.019531 -4.734375 4.15625 -4.578125 C 4.289062 -4.421875 4.351562 -4.234375 4.34375 -4.015625 C 4.332031 -3.796875 4.242188 -3.609375 4.078125 -3.453125 L 1.328125 -1.140625 C 1.160156 -0.992188 0.976562 -0.9375 0.78125 -0.96875 C 0.582031 -1 0.410156 -1.09375 0.265625 -1.25 C 0.128906 -1.414062 0.0546875 -1.601562 0.046875 -1.8125 C 0.046875 -2.03125 0.128906 -2.210938 0.296875 -2.359375 L 1.046875 -2.984375 L -6.4375 -11.796875 L -7.390625 -10.984375 C -7.554688 -10.835938 -7.738281 -10.785156 -7.9375 -10.828125 C -8.144531 -10.867188 -8.328125 -10.976562 -8.484375 -11.15625 C -8.640625 -11.34375 -8.703125 -11.535156 -8.671875 -11.734375 C -8.640625 -11.941406 -8.5625 -12.097656 -8.4375 -12.203125 L -6.640625 -13.734375 C -6.460938 -13.890625 -6.3125 -13.957031 -6.1875 -13.9375 C -6.070312 -13.925781 -5.941406 -13.832031 -5.796875 -13.65625 L -4.3125 -11.90625 C -4.476562 -12.96875 -4.414062 -13.992188 -4.125 -14.984375 C -3.84375 -15.984375 -3.347656 -16.785156 -2.640625 -17.390625 C -1.441406 -18.398438 -0.289062 -18.765625 0.8125 -18.484375 C 1.914062 -18.203125 2.910156 -17.535156 3.796875 -16.484375 L 9.3125 -10 L 9.953125 -10.5625 C 10.128906 -10.707031 10.320312 -10.757812 10.53125 -10.71875 C 10.75 -10.6875 10.925781 -10.59375 11.0625 -10.4375 C 11.195312 -10.28125 11.257812 -10.09375 11.25 -9.875 C 11.25 -9.664062 11.160156 -9.488281 10.984375 -9.34375 L 8.453125 -7.1875 C 8.078125 -6.863281 7.71875 -6.90625 7.375 -7.3125 C 7.03125 -7.71875 7.046875 -8.082031 7.421875 -8.40625 L 8 -8.890625 L 2.390625 -15.5 C 0.972656 -17.15625 -0.398438 -17.414062 -1.734375 -16.28125 C -2.628906 -15.519531 -3.101562 -14.398438 -3.15625 -12.921875 C -3.21875 -11.453125 -2.726562 -10.101562 -1.6875 -8.875 Z M 2.359375 -4.109375 "/></g></g></g><g fill="#3b1b00" fill-opacity="1"><g transform="translate(121.148697, 108.644731)"><g><path d="M 9.46875 -7.78125 L 10.703125 -8.546875 C 10.859375 -8.640625 11.023438 -8.644531 11.203125 -8.5625 C 11.390625 -8.488281 11.539062 -8.363281 11.65625 -8.1875 C 11.769531 -8.007812 11.816406 -7.820312 11.796875 -7.625 C 11.785156 -7.425781 11.703125 -7.28125 11.546875 -7.1875 L 9.359375 -5.828125 C 9.015625 -5.609375 8.734375 -5.671875 8.515625 -6.015625 L 7.59375 -7.515625 C 7.59375 -6.671875 7.390625 -5.851562 6.984375 -5.0625 C 6.585938 -4.269531 6.015625 -3.640625 5.265625 -3.171875 C 3.816406 -2.273438 2.3125 -2.140625 0.75 -2.765625 C -0.8125 -3.398438 -2.171875 -4.644531 -3.328125 -6.5 C -4.484375 -8.351562 -5.015625 -10.160156 -4.921875 -11.921875 C -4.835938 -13.679688 -4.070312 -15.007812 -2.625 -15.90625 C -1.84375 -16.394531 -1.015625 -16.65625 -0.140625 -16.6875 C 0.734375 -16.726562 1.523438 -16.539062 2.234375 -16.125 L -0.671875 -20.796875 L -1.890625 -20.046875 C -2.316406 -19.773438 -2.671875 -19.863281 -2.953125 -20.3125 C -3.242188 -20.769531 -3.175781 -21.132812 -2.75 -21.40625 L -0.75 -22.65625 C -0.5 -22.800781 -0.289062 -22.859375 -0.125 -22.828125 C 0.0390625 -22.804688 0.207031 -22.660156 0.375 -22.390625 Z M -1.859375 -7.375 C -1.023438 -6.039062 -0.015625 -5.046875 1.171875 -4.390625 C 2.367188 -3.734375 3.535156 -3.757812 4.671875 -4.46875 C 5.804688 -5.175781 6.410156 -6.164062 6.484375 -7.4375 C 6.554688 -8.71875 6.109375 -10.132812 5.140625 -11.6875 C 4.179688 -13.238281 3.085938 -14.332031 1.859375 -14.96875 C 0.628906 -15.601562 -0.550781 -15.566406 -1.6875 -14.859375 C -2.519531 -14.347656 -3.015625 -13.613281 -3.171875 -12.65625 C -3.484375 -11.03125 -3.046875 -9.269531 -1.859375 -7.375 Z M -1.859375 -7.375 "/></g></g></g><g fill="#3b1b00" fill-opacity="1"><g transform="translate(134.708586, 100.003104)"><g><path d="M 17.234375 -8.734375 L 17.890625 -9 C 18.097656 -9.082031 18.285156 -9.070312 18.453125 -8.96875 C 18.617188 -8.875 18.738281 -8.726562 18.8125 -8.53125 C 18.894531 -8.34375 18.910156 -8.148438 18.859375 -7.953125 C 18.816406 -7.753906 18.691406 -7.613281 18.484375 -7.53125 L 15.75 -6.421875 C 15.539062 -6.335938 15.347656 -6.347656 15.171875 -6.453125 C 14.992188 -6.554688 14.863281 -6.703125 14.78125 -6.890625 C 14.707031 -7.085938 14.695312 -7.28125 14.75 -7.46875 C 14.8125 -7.664062 14.945312 -7.804688 15.15625 -7.890625 L 15.640625 -8.078125 L 12.5625 -15.609375 C 12.082031 -16.785156 11.601562 -17.613281 11.125 -18.09375 C 10.644531 -18.570312 10.023438 -18.65625 9.265625 -18.34375 C 8.515625 -18.039062 7.992188 -17.46875 7.703125 -16.625 C 7.140625 -15.070312 7.195312 -13.457031 7.875 -11.78125 L 10.28125 -5.90625 L 10.84375 -6.140625 C 11.082031 -6.234375 11.289062 -6.226562 11.46875 -6.125 C 11.644531 -6.03125 11.773438 -5.882812 11.859375 -5.6875 C 11.941406 -5.488281 11.953125 -5.289062 11.890625 -5.09375 C 11.828125 -4.90625 11.675781 -4.765625 11.4375 -4.671875 L 8.734375 -3.5625 C 8.242188 -3.363281 7.898438 -3.507812 7.703125 -4 C 7.503906 -4.488281 7.648438 -4.832031 8.140625 -5.03125 L 8.71875 -5.265625 L 5.5625 -13 C 5.300781 -13.625 5.046875 -14.132812 4.796875 -14.53125 C 4.546875 -14.9375 4.195312 -15.253906 3.75 -15.484375 C 3.300781 -15.710938 2.8125 -15.71875 2.28125 -15.5 C 1.226562 -15.070312 0.617188 -14.179688 0.453125 -12.828125 C 0.296875 -11.484375 0.460938 -10.210938 0.953125 -9.015625 L 3.375 -3.078125 L 3.9375 -3.3125 C 4.113281 -3.382812 4.300781 -3.367188 4.5 -3.265625 C 4.695312 -3.171875 4.832031 -3.03125 4.90625 -2.84375 C 4.976562 -2.664062 4.976562 -2.472656 4.90625 -2.265625 C 4.84375 -2.066406 4.71875 -1.925781 4.53125 -1.84375 L 1.625 -0.65625 C 1.394531 -0.570312 1.179688 -0.578125 0.984375 -0.671875 C 0.785156 -0.765625 0.644531 -0.90625 0.5625 -1.09375 C 0.488281 -1.289062 0.488281 -1.488281 0.5625 -1.6875 C 0.644531 -1.894531 0.800781 -2.039062 1.03125 -2.125 L 1.765625 -2.4375 L -2.609375 -13.15625 L -3.609375 -12.734375 C -3.796875 -12.660156 -3.976562 -12.664062 -4.15625 -12.75 C -4.332031 -12.832031 -4.46875 -12.988281 -4.5625 -13.21875 C -4.664062 -13.457031 -4.671875 -13.671875 -4.578125 -13.859375 C -4.484375 -14.046875 -4.363281 -14.164062 -4.21875 -14.21875 L -2.109375 -15.09375 C -1.910156 -15.164062 -1.765625 -15.1875 -1.671875 -15.15625 C -1.578125 -15.125 -1.488281 -15.003906 -1.40625 -14.796875 L -0.65625 -12.9375 L -0.609375 -12.96875 C -0.453125 -14.96875 0.394531 -16.285156 1.9375 -16.921875 C 3.488281 -17.554688 4.867188 -17.078125 6.078125 -15.484375 C 6.410156 -17.703125 7.359375 -19.128906 8.921875 -19.765625 C 10.109375 -20.242188 11.125 -20.15625 11.96875 -19.5 C 12.820312 -18.84375 13.5 -17.894531 14 -16.65625 Z M 17.234375 -8.734375 "/></g></g></g><g fill="#3b1b00" fill-opacity="1"><g transform="translate(155.994197, 91.809616)"><g><path d="M 2.296875 -16.03125 C 4.015625 -16.414062 5.472656 -16.15625 6.671875 -15.25 C 7.878906 -14.351562 8.679688 -13.035156 9.078125 -11.296875 C 9.703125 -8.523438 10.222656 -6.675781 10.640625 -5.75 C 11.066406 -4.832031 11.601562 -4.238281 12.25 -3.96875 C 12.625 -3.894531 12.84375 -3.710938 12.90625 -3.421875 C 13.019531 -2.898438 12.835938 -2.582031 12.359375 -2.46875 C 11.878906 -2.363281 11.375 -2.488281 10.84375 -2.84375 C 10.3125 -3.195312 9.835938 -3.675781 9.421875 -4.28125 C 9.242188 -3.539062 8.828125 -2.859375 8.171875 -2.234375 C 7.515625 -1.609375 6.671875 -1.179688 5.640625 -0.953125 C 4.117188 -0.609375 2.773438 -0.804688 1.609375 -1.546875 C 0.453125 -2.285156 -0.289062 -3.390625 -0.625 -4.859375 C -0.957031 -6.335938 -0.742188 -7.707031 0.015625 -8.96875 C 0.773438 -10.226562 1.898438 -11.023438 3.390625 -11.359375 C 4.890625 -11.703125 6.25 -11.5 7.46875 -10.75 C 7.15625 -12.15625 6.585938 -13.257812 5.765625 -14.0625 C 4.953125 -14.875 3.925781 -15.140625 2.6875 -14.859375 C 1.445312 -14.585938 0.738281 -14.070312 0.5625 -13.3125 C 0.84375 -12.925781 1.015625 -12.59375 1.078125 -12.3125 C 1.148438 -12.03125 1.101562 -11.703125 0.9375 -11.328125 C 0.769531 -10.960938 0.507812 -10.738281 0.15625 -10.65625 C -0.1875 -10.582031 -0.488281 -10.671875 -0.75 -10.921875 C -1.019531 -11.171875 -1.203125 -11.5 -1.296875 -11.90625 C -1.484375 -12.738281 -1.234375 -13.5625 -0.546875 -14.375 C 0.128906 -15.195312 1.078125 -15.75 2.296875 -16.03125 Z M 1 -5.359375 C 1.25 -4.265625 1.820312 -3.429688 2.71875 -2.859375 C 3.625 -2.285156 4.59375 -2.113281 5.625 -2.34375 C 6.65625 -2.570312 7.441406 -3.125 7.984375 -4 C 8.523438 -4.875 8.679688 -5.816406 8.453125 -6.828125 L 8.390625 -7.109375 C 8.148438 -8.179688 7.585938 -8.984375 6.703125 -9.515625 C 5.816406 -10.054688 4.847656 -10.207031 3.796875 -9.96875 C 2.753906 -9.738281 1.960938 -9.1875 1.421875 -8.3125 C 0.890625 -7.4375 0.75 -6.453125 1 -5.359375 Z M 1 -5.359375 "/></g></g></g><g fill="#3b1b00" fill-opacity="1"><g transform="translate(170.604023, 88.566697)"><g><path d="M 11.953125 -2.640625 L 13.40625 -2.765625 C 13.59375 -2.773438 13.753906 -2.703125 13.890625 -2.546875 C 14.023438 -2.398438 14.097656 -2.222656 14.109375 -2.015625 C 14.128906 -1.804688 14.085938 -1.613281 13.984375 -1.4375 C 13.878906 -1.269531 13.734375 -1.179688 13.546875 -1.171875 L 10.96875 -0.953125 C 10.582031 -0.910156 10.375 -1.09375 10.34375 -1.5 L 10.1875 -3.25 C 9.800781 -2.507812 9.25 -1.875 8.53125 -1.34375 C 7.8125 -0.8125 7.019531 -0.507812 6.15625 -0.4375 C 4.445312 -0.289062 3.035156 -0.851562 1.921875 -2.125 C 0.816406 -3.394531 0.171875 -5.117188 -0.015625 -7.296875 C -0.203125 -9.472656 0.140625 -11.320312 1.015625 -12.84375 C 1.890625 -14.375 3.179688 -15.210938 4.890625 -15.359375 C 5.796875 -15.441406 6.644531 -15.300781 7.4375 -14.9375 C 8.238281 -14.570312 8.863281 -14.046875 9.3125 -13.359375 L 8.84375 -18.84375 L 7.40625 -18.71875 C 6.90625 -18.675781 6.628906 -18.921875 6.578125 -19.453125 C 6.535156 -19.984375 6.765625 -20.269531 7.265625 -20.3125 L 9.609375 -20.515625 C 9.898438 -20.546875 10.109375 -20.507812 10.234375 -20.40625 C 10.367188 -20.300781 10.453125 -20.097656 10.484375 -19.796875 Z M 1.671875 -7.421875 C 1.804688 -5.859375 2.257812 -4.515625 3.03125 -3.390625 C 3.8125 -2.265625 4.863281 -1.757812 6.1875 -1.875 C 7.519531 -1.988281 8.507812 -2.59375 9.15625 -3.6875 C 9.8125 -4.789062 10.054688 -6.253906 9.890625 -8.078125 C 9.734375 -9.898438 9.25 -11.367188 8.4375 -12.484375 C 7.632812 -13.609375 6.566406 -14.113281 5.234375 -14 C 4.265625 -13.914062 3.492188 -13.488281 2.921875 -12.71875 C 1.898438 -11.414062 1.484375 -9.648438 1.671875 -7.421875 Z M 1.671875 -7.421875 "/></g></g></g><g fill="#3b1b00" fill-opacity="1"><g transform="translate(186.920833, 87.364156)"><g><path d="M 10.46875 -9.734375 C 10.425781 -10.566406 10.09375 -11.375 9.46875 -12.15625 C 8.84375 -12.945312 8.046875 -13.363281 7.078125 -13.40625 C 6.109375 -13.457031 5.289062 -13.132812 4.625 -12.4375 C 3.957031 -11.75 3.476562 -10.957031 3.1875 -10.0625 Z M 6.78125 0.609375 C 4.914062 0.523438 3.453125 -0.265625 2.390625 -1.765625 C 1.328125 -3.273438 0.84375 -5.15625 0.9375 -7.40625 C 1.039062 -9.65625 1.660156 -11.460938 2.796875 -12.828125 C 3.941406 -14.191406 5.394531 -14.835938 7.15625 -14.765625 C 8.050781 -14.722656 8.847656 -14.484375 9.546875 -14.046875 C 10.253906 -13.617188 10.785156 -13.097656 11.140625 -12.484375 C 11.910156 -11.234375 12.269531 -10.066406 12.21875 -8.984375 C 12.195312 -8.410156 11.921875 -8.140625 11.390625 -8.171875 L 2.796875 -8.546875 C 2.742188 -8.273438 2.703125 -7.898438 2.671875 -7.421875 C 2.585938 -5.535156 2.941406 -3.96875 3.734375 -2.71875 C 4.535156 -1.476562 5.570312 -0.832031 6.84375 -0.78125 C 7.394531 -0.75 7.898438 -0.867188 8.359375 -1.140625 C 8.828125 -1.421875 9.15625 -1.695312 9.34375 -1.96875 C 9.539062 -2.238281 9.765625 -2.601562 10.015625 -3.0625 C 10.273438 -3.53125 10.613281 -3.753906 11.03125 -3.734375 C 11.644531 -3.703125 11.941406 -3.40625 11.921875 -2.84375 C 11.890625 -2.132812 11.394531 -1.363281 10.4375 -0.53125 C 9.488281 0.300781 8.269531 0.679688 6.78125 0.609375 Z M 6.78125 0.609375 "/></g></g></g><g fill="#3b1b00" fill-opacity="1"><g transform="translate(200.603351, 88.176946)"><g/></g></g><g fill="#3b1b00" fill-opacity="1"><g transform="translate(210.009092, 89.453542)"><g><path d="M 13.765625 -0.953125 C 13.878906 -1.140625 14.054688 -1.28125 14.296875 -1.375 C 14.546875 -1.476562 14.773438 -1.5 14.984375 -1.4375 C 15.191406 -1.382812 15.347656 -1.238281 15.453125 -1 C 15.566406 -0.757812 15.597656 -0.53125 15.546875 -0.3125 C 15.285156 0.65625 14.40625 1.476562 12.90625 2.15625 C 11.414062 2.832031 9.859375 2.957031 8.234375 2.53125 C 5.984375 1.925781 4.332031 0.585938 3.28125 -1.484375 C 2.238281 -3.554688 2.132812 -6.144531 2.96875 -9.25 C 3.800781 -12.363281 5.207031 -14.582031 7.1875 -15.90625 C 9.164062 -17.226562 11.171875 -17.617188 13.203125 -17.078125 C 14.273438 -16.785156 15.15625 -16.316406 15.84375 -15.671875 C 16.53125 -15.023438 16.753906 -14.265625 16.515625 -13.390625 C 16.429688 -13.078125 16.265625 -12.828125 16.015625 -12.640625 C 15.765625 -12.453125 15.429688 -12.410156 15.015625 -12.515625 C 14.597656 -12.628906 14.25 -12.914062 13.96875 -13.375 C 13.695312 -13.832031 13.617188 -14.257812 13.734375 -14.65625 C 13.742188 -14.726562 13.835938 -14.878906 14.015625 -15.109375 C 13.734375 -15.347656 13.296875 -15.546875 12.703125 -15.703125 C 11.179688 -16.109375 9.632812 -15.679688 8.0625 -14.421875 C 6.5 -13.160156 5.410156 -11.375 4.796875 -9.0625 C 4.441406 -7.738281 4.316406 -6.378906 4.421875 -4.984375 C 4.535156 -3.597656 4.941406 -2.332031 5.640625 -1.1875 C 6.347656 -0.0390625 7.253906 0.675781 8.359375 0.96875 C 9.472656 1.269531 10.523438 1.226562 11.515625 0.84375 C 12.515625 0.457031 13.265625 -0.140625 13.765625 -0.953125 Z M 13.765625 -0.953125 "/></g></g></g><g fill="#3b1b00" fill-opacity="1"><g transform="translate(226.092529, 93.943985)"><g><path d="M 11.21875 -11.671875 C 12.832031 -10.984375 13.867188 -9.921875 14.328125 -8.484375 C 14.785156 -7.054688 14.664062 -5.519531 13.96875 -3.875 C 12.863281 -1.269531 12.207031 0.53125 12 1.53125 C 11.800781 2.53125 11.890625 3.328125 12.265625 3.921875 C 12.515625 4.210938 12.582031 4.488281 12.46875 4.75 C 12.257812 5.238281 11.929688 5.382812 11.484375 5.1875 C 11.035156 5 10.695312 4.601562 10.46875 4 C 10.25 3.40625 10.144531 2.75 10.15625 2.03125 C 9.570312 2.507812 8.832031 2.8125 7.9375 2.9375 C 7.050781 3.0625 6.117188 2.921875 5.140625 2.515625 C 3.703125 1.898438 2.726562 0.957031 2.21875 -0.3125 C 1.707031 -1.582031 1.742188 -2.910156 2.328125 -4.296875 C 2.921875 -5.691406 3.894531 -6.679688 5.25 -7.265625 C 6.601562 -7.847656 7.984375 -7.835938 9.390625 -7.234375 C 10.804688 -6.640625 11.785156 -5.679688 12.328125 -4.359375 C 12.890625 -5.679688 13.078125 -6.910156 12.890625 -8.046875 C 12.703125 -9.191406 12.023438 -10.007812 10.859375 -10.5 C 9.691406 -11 8.816406 -10.992188 8.234375 -10.484375 C 8.234375 -10.003906 8.175781 -9.632812 8.0625 -9.375 C 7.957031 -9.113281 7.726562 -8.878906 7.375 -8.671875 C 7.019531 -8.460938 6.675781 -8.425781 6.34375 -8.5625 C 6.007812 -8.707031 5.804688 -8.957031 5.734375 -9.3125 C 5.671875 -9.675781 5.722656 -10.050781 5.890625 -10.4375 C 6.222656 -11.21875 6.90625 -11.738281 7.9375 -12 C 8.96875 -12.269531 10.0625 -12.160156 11.21875 -11.671875 Z M 3.9375 -3.765625 C 3.5 -2.734375 3.476562 -1.722656 3.875 -0.734375 C 4.28125 0.253906 4.96875 0.953125 5.9375 1.359375 C 6.914062 1.773438 7.878906 1.785156 8.828125 1.390625 C 9.773438 1.003906 10.453125 0.332031 10.859375 -0.625 L 10.96875 -0.875 C 11.394531 -1.894531 11.40625 -2.878906 11 -3.828125 C 10.601562 -4.773438 9.910156 -5.457031 8.921875 -5.875 C 7.929688 -6.289062 6.960938 -6.300781 6.015625 -5.90625 C 5.066406 -5.519531 4.375 -4.804688 3.9375 -3.765625 Z M 3.9375 -3.765625 "/></g></g></g><g fill="#3b1b00" fill-opacity="1"><g transform="translate(239.831697, 99.780273)"><g><path d="M 4.640625 0.9375 L 5.40625 1.40625 C 5.601562 1.519531 5.722656 1.679688 5.765625 1.890625 C 5.804688 2.097656 5.769531 2.289062 5.65625 2.46875 C 5.550781 2.644531 5.394531 2.765625 5.1875 2.828125 C 4.976562 2.898438 4.773438 2.878906 4.578125 2.765625 L 1.5 0.90625 C 1.3125 0.789062 1.195312 0.628906 1.15625 0.421875 C 1.125 0.222656 1.164062 0.0351562 1.28125 -0.140625 C 1.394531 -0.328125 1.550781 -0.453125 1.75 -0.515625 C 1.945312 -0.585938 2.140625 -0.566406 2.328125 -0.453125 L 3.171875 0.046875 L 9.140625 -9.859375 L 8.0625 -10.5 C 7.875 -10.613281 7.765625 -10.769531 7.734375 -10.96875 C 7.703125 -11.175781 7.75 -11.382812 7.875 -11.59375 C 8 -11.800781 8.164062 -11.921875 8.375 -11.953125 C 8.582031 -11.984375 8.753906 -11.957031 8.890625 -11.875 L 10.921875 -10.65625 C 11.117188 -10.539062 11.222656 -10.425781 11.234375 -10.3125 C 11.253906 -10.207031 11.207031 -10.054688 11.09375 -9.859375 L 9.90625 -7.890625 C 10.875 -8.378906 11.867188 -8.648438 12.890625 -8.703125 C 13.921875 -8.753906 14.835938 -8.535156 15.640625 -8.046875 C 16.984375 -7.242188 17.691406 -6.269531 17.765625 -5.125 C 17.847656 -3.988281 17.535156 -2.832031 16.828125 -1.65625 L 12.4375 5.640625 L 13.1875 6.078125 C 13.375 6.203125 13.488281 6.367188 13.53125 6.578125 C 13.570312 6.785156 13.535156 6.976562 13.421875 7.15625 C 13.316406 7.332031 13.160156 7.453125 12.953125 7.515625 C 12.742188 7.585938 12.546875 7.5625 12.359375 7.4375 L 9.5 5.71875 C 9.082031 5.46875 9.007812 5.113281 9.28125 4.65625 C 9.5625 4.207031 9.910156 4.109375 10.328125 4.359375 L 10.96875 4.75 L 15.4375 -2.6875 C 16.5625 -4.550781 16.375 -5.929688 14.875 -6.828125 C 13.875 -7.429688 12.660156 -7.523438 11.234375 -7.109375 C 9.816406 -6.703125 8.691406 -5.804688 7.859375 -4.421875 Z M 4.640625 0.9375 "/></g></g></g><g fill="#3b1b00" fill-opacity="1"><g transform="translate(254.727985, 108.940051)"><g><path d="M 10.375 6.484375 L 11.5 7.421875 C 11.644531 7.535156 11.710938 7.691406 11.703125 7.890625 C 11.691406 8.097656 11.617188 8.28125 11.484375 8.4375 C 11.359375 8.601562 11.195312 8.707031 11 8.75 C 10.800781 8.800781 10.628906 8.769531 10.484375 8.65625 L 8.5 7.015625 C 8.195312 6.753906 8.175781 6.46875 8.4375 6.15625 L 9.5625 4.796875 C 8.75 5.066406 7.898438 5.140625 7.015625 5.015625 C 6.140625 4.890625 5.363281 4.550781 4.6875 4 C 3.363281 2.90625 2.753906 1.519531 2.859375 -0.15625 C 2.960938 -1.84375 3.707031 -3.53125 5.09375 -5.21875 C 6.488281 -6.90625 8.03125 -7.984375 9.71875 -8.453125 C 11.414062 -8.929688 12.921875 -8.628906 14.234375 -7.546875 C 14.941406 -6.960938 15.453125 -6.257812 15.765625 -5.4375 C 16.085938 -4.625 16.171875 -3.820312 16.015625 -3.03125 L 19.515625 -7.265625 L 18.40625 -8.171875 C 18.019531 -8.492188 17.992188 -8.863281 18.328125 -9.28125 C 18.671875 -9.695312 19.035156 -9.742188 19.421875 -9.421875 L 21.234375 -7.921875 C 21.460938 -7.734375 21.582031 -7.554688 21.59375 -7.390625 C 21.613281 -7.234375 21.523438 -7.035156 21.328125 -6.796875 Z M 6.390625 -4.125 C 5.390625 -2.90625 4.769531 -1.625 4.53125 -0.28125 C 4.300781 1.050781 4.695312 2.140625 5.71875 2.984375 C 6.75 3.835938 7.878906 4.097656 9.109375 3.765625 C 10.347656 3.441406 11.550781 2.570312 12.71875 1.15625 C 13.882812 -0.25 14.570312 -1.632812 14.78125 -3 C 14.988281 -4.363281 14.578125 -5.46875 13.546875 -6.3125 C 12.796875 -6.9375 11.941406 -7.175781 10.984375 -7.03125 C 9.347656 -6.820312 7.816406 -5.851562 6.390625 -4.125 Z M 6.390625 -4.125 "/></g></g></g><g fill="#3b1b00" fill-opacity="1"><g transform="translate(267.270634, 119.700046)"><g><path d="M 14.734375 -10.640625 L 14.046875 -11.34375 C 13.878906 -11.507812 13.800781 -11.703125 13.8125 -11.921875 C 13.820312 -12.140625 13.910156 -12.328125 14.078125 -12.484375 C 14.242188 -12.648438 14.429688 -12.726562 14.640625 -12.71875 C 14.847656 -12.71875 15.035156 -12.632812 15.203125 -12.46875 L 16.421875 -11.21875 C 16.671875 -10.957031 16.796875 -10.734375 16.796875 -10.546875 C 16.804688 -10.359375 16.695312 -10.15625 16.46875 -9.9375 L 4.171875 2.015625 L 4.71875 2.578125 C 4.882812 2.742188 4.957031 2.929688 4.9375 3.140625 C 4.914062 3.359375 4.832031 3.535156 4.6875 3.671875 C 4.300781 4.046875 3.929688 4.050781 3.578125 3.6875 L 1.3125 1.34375 C 1.144531 1.175781 1.066406 0.988281 1.078125 0.78125 C 1.097656 0.570312 1.179688 0.394531 1.328125 0.25 C 1.484375 0.101562 1.664062 0.0195312 1.875 0 C 2.09375 -0.0078125 2.285156 0.0664062 2.453125 0.234375 L 2.984375 0.78125 Z M 14.734375 -10.640625 "/></g></g></g><g fill="#3b1b00" fill-opacity="1"><g transform="translate(273.356864, 125.924548)"><g><path d="M 14.234375 1.484375 C 14.816406 0.910156 15.203125 0.128906 15.390625 -0.859375 C 15.585938 -1.847656 15.378906 -2.722656 14.765625 -3.484375 C 14.160156 -4.242188 13.378906 -4.644531 12.421875 -4.6875 C 11.460938 -4.738281 10.550781 -4.582031 9.6875 -4.21875 Z M 3.984375 5.5 C 2.828125 4.039062 2.460938 2.414062 2.890625 0.625 C 3.328125 -1.15625 4.425781 -2.75 6.1875 -4.15625 C 7.957031 -5.5625 9.726562 -6.285156 11.5 -6.328125 C 13.28125 -6.367188 14.722656 -5.695312 15.828125 -4.3125 C 16.390625 -3.601562 16.738281 -2.84375 16.875 -2.03125 C 17.007812 -1.21875 16.960938 -0.476562 16.734375 0.1875 C 16.296875 1.582031 15.65625 2.617188 14.8125 3.296875 C 14.363281 3.648438 13.972656 3.617188 13.640625 3.203125 L 8.28125 -3.53125 C 8.039062 -3.394531 7.726562 -3.171875 7.34375 -2.859375 C 5.863281 -1.691406 4.914062 -0.398438 4.5 1.015625 C 4.09375 2.441406 4.285156 3.648438 5.078125 4.640625 C 5.421875 5.078125 5.847656 5.378906 6.359375 5.546875 C 6.878906 5.710938 7.300781 5.78125 7.625 5.75 C 7.957031 5.71875 8.378906 5.644531 8.890625 5.53125 C 9.410156 5.425781 9.800781 5.539062 10.0625 5.875 C 10.445312 6.351562 10.421875 6.765625 9.984375 7.109375 C 9.429688 7.554688 8.523438 7.691406 7.265625 7.515625 C 6.015625 7.347656 4.921875 6.675781 3.984375 5.5 Z M 3.984375 5.5 "/></g></g></g><g fill="#3b1b00" fill-opacity="1"><g transform="translate(281.732688, 136.686513)"><g><path d="M 12.078125 -3.96875 C 11.441406 -3.570312 11.054688 -2.460938 10.921875 -0.640625 L 10.828125 0.625 C 10.785156 1.332031 10.726562 1.90625 10.65625 2.34375 C 10.582031 2.78125 10.363281 3.335938 10 4.015625 C 9.644531 4.703125 9.15625 5.238281 8.53125 5.625 C 7.5625 6.238281 6.484375 6.476562 5.296875 6.34375 C 4.109375 6.21875 3.148438 5.582031 2.421875 4.4375 C 1.703125 3.289062 1.390625 2.1875 1.484375 1.125 C 1.578125 0.0625 2.050781 -0.738281 2.90625 -1.28125 C 3.425781 -1.613281 3.957031 -1.753906 4.5 -1.703125 C 5.039062 -1.660156 5.410156 -1.484375 5.609375 -1.171875 C 5.804688 -0.859375 5.859375 -0.554688 5.765625 -0.265625 C 5.671875 0.0234375 5.46875 0.265625 5.15625 0.453125 C 4.53125 0.847656 3.929688 0.9375 3.359375 0.71875 C 3.035156 0.96875 2.878906 1.375 2.890625 1.9375 C 2.898438 2.5 3.113281 3.109375 3.53125 3.765625 C 3.957031 4.429688 4.539062 4.820312 5.28125 4.9375 C 6.03125 5.0625 6.675781 4.953125 7.21875 4.609375 C 7.769531 4.265625 8.164062 3.832031 8.40625 3.3125 C 8.644531 2.800781 8.785156 2.347656 8.828125 1.953125 C 8.878906 1.566406 8.929688 0.957031 8.984375 0.125 L 9.03125 -0.578125 C 9.09375 -1.773438 9.238281 -2.734375 9.46875 -3.453125 C 9.695312 -4.179688 10.171875 -4.769531 10.890625 -5.21875 C 11.609375 -5.675781 12.375 -5.796875 13.1875 -5.578125 C 14 -5.367188 14.644531 -4.882812 15.125 -4.125 C 15.613281 -3.363281 15.832031 -2.539062 15.78125 -1.65625 C 15.726562 -0.78125 15.382812 -0.140625 14.75 0.265625 C 14.457031 0.453125 14.160156 0.53125 13.859375 0.5 C 13.566406 0.476562 13.332031 0.328125 13.15625 0.046875 C 12.976562 -0.222656 12.960938 -0.585938 13.109375 -1.046875 C 13.265625 -1.515625 13.484375 -1.835938 13.765625 -2.015625 C 14.054688 -2.203125 14.335938 -2.320312 14.609375 -2.375 C 14.640625 -2.601562 14.507812 -2.945312 14.21875 -3.40625 C 13.925781 -3.863281 13.570312 -4.117188 13.15625 -4.171875 C 12.75 -4.234375 12.390625 -4.164062 12.078125 -3.96875 Z M 12.078125 -3.96875 "/></g></g></g><g fill="#3b1b00" fill-opacity="1"><g transform="translate(69.38942, 186.965853)"><g><path d="M 5 18.8125 C 5.269531 18.914062 5.503906 19.117188 5.703125 19.421875 C 5.898438 19.734375 5.988281 20.039062 5.96875 20.34375 C 5.945312 20.644531 5.789062 20.90625 5.5 21.125 C 5.207031 21.351562 4.90625 21.457031 4.59375 21.4375 C 3.175781 21.332031 1.796875 20.332031 0.453125 18.4375 C -0.878906 16.539062 -1.460938 14.414062 -1.296875 12.0625 C -1.066406 8.78125 0.34375 6.140625 2.9375 4.140625 C 5.53125 2.140625 9.085938 1.300781 13.609375 1.625 C 18.128906 1.945312 21.566406 3.300781 23.921875 5.6875 C 26.285156 8.070312 27.359375 10.742188 27.140625 13.703125 C 27.035156 15.265625 26.625 16.601562 25.90625 17.71875 C 25.195312 18.832031 24.207031 19.347656 22.9375 19.265625 C 22.476562 19.222656 22.082031 19.054688 21.75 18.765625 C 21.425781 18.472656 21.285156 18.023438 21.328125 17.421875 C 21.367188 16.816406 21.664062 16.265625 22.21875 15.765625 C 22.78125 15.273438 23.351562 15.050781 23.9375 15.09375 C 24.050781 15.101562 24.289062 15.191406 24.65625 15.359375 C 24.882812 14.910156 25.03125 14.253906 25.09375 13.390625 C 25.25 11.179688 24.25 9.15625 22.09375 7.3125 C 19.9375 5.46875 17.175781 4.425781 13.8125 4.1875 C 11.875 4.050781 9.957031 4.25 8.0625 4.78125 C 6.175781 5.320312 4.539062 6.226562 3.15625 7.5 C 1.769531 8.769531 1.015625 10.210938 0.890625 11.828125 C 0.773438 13.441406 1.113281 14.882812 1.90625 16.15625 C 2.695312 17.425781 3.726562 18.3125 5 18.8125 Z M 5 18.8125 "/></g></g></g><g fill="#3b1b00" fill-opacity="1"><g transform="translate(68.029619, 212.263373)"><g><path d="M 10.4375 -0.796875 C 13.519531 -1.234375 16.175781 -0.71875 18.40625 0.75 C 20.644531 2.226562 21.972656 4.460938 22.390625 7.453125 C 22.816406 10.441406 22.164062 12.953125 20.4375 14.984375 C 18.707031 17.023438 16.304688 18.257812 13.234375 18.6875 C 10.160156 19.125 7.492188 18.613281 5.234375 17.15625 C 2.972656 15.695312 1.625 13.441406 1.1875 10.390625 C 0.757812 7.335938 1.425781 4.816406 3.1875 2.828125 C 4.945312 0.835938 7.363281 -0.367188 10.4375 -0.796875 Z M 4.96875 4.53125 C 3.507812 6.164062 2.925781 8.023438 3.21875 10.109375 C 3.519531 12.203125 4.585938 13.84375 6.421875 15.03125 C 8.265625 16.226562 10.398438 16.65625 12.828125 16.3125 C 15.265625 15.96875 17.203125 14.957031 18.640625 13.28125 C 20.078125 11.613281 20.648438 9.75 20.359375 7.6875 C 20.078125 5.632812 19.019531 4.019531 17.1875 2.84375 C 15.351562 1.664062 13.222656 1.242188 10.796875 1.578125 C 8.367188 1.921875 6.425781 2.90625 4.96875 4.53125 Z M 4.96875 4.53125 "/></g></g></g><g fill="#3b1b00" fill-opacity="1"><g transform="translate(71.634995, 237.740597)"><g><path d="M 12.46875 24.171875 L 12.859375 25.109375 C 12.984375 25.398438 12.96875 25.671875 12.8125 25.921875 C 12.664062 26.171875 12.457031 26.347656 12.1875 26.453125 C 11.925781 26.566406 11.65625 26.585938 11.375 26.515625 C 11.101562 26.441406 10.90625 26.257812 10.78125 25.96875 L 9.1875 22.125 C 9.0625 21.820312 9.070312 21.546875 9.21875 21.296875 C 9.363281 21.054688 9.566406 20.878906 9.828125 20.765625 C 10.097656 20.660156 10.375 20.640625 10.65625 20.703125 C 10.9375 20.773438 11.140625 20.960938 11.265625 21.265625 L 11.546875 21.9375 L 22.109375 17.546875 C 23.765625 16.859375 24.925781 16.171875 25.59375 15.484375 C 26.257812 14.804688 26.375 13.9375 25.9375 12.875 C 25.5 11.820312 24.679688 11.101562 23.484375 10.71875 C 21.285156 9.925781 19.007812 10.019531 16.65625 11 L 8.421875 14.421875 L 8.75 15.21875 C 8.882812 15.539062 8.878906 15.832031 8.734375 16.09375 C 8.597656 16.363281 8.390625 16.554688 8.109375 16.671875 C 7.835938 16.785156 7.5625 16.796875 7.28125 16.703125 C 7.007812 16.609375 6.804688 16.398438 6.671875 16.078125 L 5.09375 12.28125 C 4.8125 11.582031 5.015625 11.085938 5.703125 10.796875 C 6.398438 10.515625 6.890625 10.722656 7.171875 11.421875 L 7.5 12.21875 L 18.34375 7.71875 C 19.226562 7.351562 19.953125 6.988281 20.515625 6.625 C 21.085938 6.257812 21.53125 5.757812 21.84375 5.125 C 22.164062 4.5 22.171875 3.8125 21.859375 3.0625 C 21.253906 1.59375 20 0.75 18.09375 0.53125 C 16.1875 0.3125 14.394531 0.550781 12.71875 1.25 L 4.390625 4.703125 L 4.71875 5.5 C 4.820312 5.738281 4.800781 6.003906 4.65625 6.296875 C 4.507812 6.585938 4.304688 6.785156 4.046875 6.890625 C 3.796875 6.992188 3.523438 6.992188 3.234375 6.890625 C 2.941406 6.796875 2.742188 6.617188 2.640625 6.359375 L 0.953125 2.28125 C 0.816406 1.957031 0.816406 1.65625 0.953125 1.375 C 1.085938 1.101562 1.285156 0.910156 1.546875 0.796875 C 1.816406 0.691406 2.097656 0.6875 2.390625 0.78125 C 2.679688 0.882812 2.894531 1.097656 3.03125 1.421875 L 3.453125 2.453125 L 18.484375 -3.796875 L 17.90625 -5.1875 C 17.789062 -5.457031 17.789062 -5.71875 17.90625 -5.96875 C 18.019531 -6.21875 18.242188 -6.410156 18.578125 -6.546875 C 18.921875 -6.679688 19.222656 -6.679688 19.484375 -6.546875 C 19.742188 -6.421875 19.914062 -6.253906 20 -6.046875 L 21.234375 -3.09375 C 21.335938 -2.820312 21.367188 -2.625 21.328125 -2.5 C 21.296875 -2.375 21.128906 -2.25 20.828125 -2.125 L 18.234375 -1.046875 L 18.265625 -0.96875 C 21.097656 -0.757812 22.960938 0.425781 23.859375 2.59375 C 24.765625 4.769531 24.101562 6.707031 21.875 8.40625 C 25 8.863281 27.015625 10.1875 27.921875 12.375 C 28.617188 14.050781 28.503906 15.484375 27.578125 16.671875 C 26.648438 17.867188 25.320312 18.828125 23.59375 19.546875 Z M 12.46875 24.171875 "/></g></g></g><g fill="#3b1b00" fill-opacity="1"><g transform="translate(86.040297, 269.37618)"><g><path d="M -0.4375 4.828125 L 16.953125 -8.265625 L 16 -9.546875 C 15.84375 -9.753906 15.804688 -10 15.890625 -10.28125 C 15.972656 -10.570312 16.128906 -10.800781 16.359375 -10.96875 C 16.585938 -11.144531 16.847656 -11.234375 17.140625 -11.234375 C 17.429688 -11.234375 17.65625 -11.128906 17.8125 -10.921875 L 19.734375 -8.359375 C 19.941406 -8.085938 20.03125 -7.882812 20 -7.75 C 19.96875 -7.613281 19.828125 -7.453125 19.578125 -7.265625 L 17.46875 -5.671875 C 18.65625 -5.804688 19.835938 -5.632812 21.015625 -5.15625 C 22.203125 -4.675781 23.171875 -3.9375 23.921875 -2.9375 C 25.367188 -1.007812 25.742188 1.082031 25.046875 3.34375 C 24.347656 5.613281 22.769531 7.671875 20.3125 9.515625 C 17.863281 11.367188 15.421875 12.335938 12.984375 12.421875 C 10.546875 12.515625 8.585938 11.578125 7.109375 9.609375 C 6.367188 8.617188 5.914062 7.492188 5.75 6.234375 C 5.59375 4.972656 5.722656 3.863281 6.140625 2.90625 L 1.03125 6.765625 L 1.8125 7.796875 C 2 8.054688 2.070312 8.328125 2.03125 8.609375 C 2 8.898438 1.859375 9.140625 1.609375 9.328125 C 0.984375 9.796875 0.453125 9.738281 0.015625 9.15625 L -3.03125 5.109375 C -3.445312 4.554688 -3.34375 4.046875 -2.71875 3.578125 C -2.46875 3.390625 -2.203125 3.3125 -1.921875 3.34375 C -1.640625 3.382812 -1.410156 3.519531 -1.234375 3.75 Z M 19.359375 7.203125 C 20.785156 6.128906 21.910156 4.722656 22.734375 2.984375 C 23.554688 1.242188 23.394531 -0.378906 22.25 -1.890625 C 21.101562 -3.410156 19.613281 -4.140625 17.78125 -4.078125 C 15.945312 -4.023438 13.984375 -3.210938 11.890625 -1.640625 C 9.804688 -0.0664062 8.453125 1.609375 7.828125 3.390625 C 7.210938 5.179688 7.476562 6.835938 8.625 8.359375 C 9.457031 9.460938 10.523438 10.066406 11.828125 10.171875 C 13.140625 10.273438 14.363281 10.078125 15.5 9.578125 C 16.644531 9.078125 17.929688 8.285156 19.359375 7.203125 Z M 19.359375 7.203125 "/></g></g></g><g fill="#3b1b00" fill-opacity="1"><g transform="translate(101.059648, 288.218741)"><g><path d="M 8.140625 3.890625 C 8.398438 3.617188 8.691406 3.476562 9.015625 3.46875 C 9.347656 3.457031 9.648438 3.578125 9.921875 3.828125 C 10.191406 4.085938 10.332031 4.378906 10.34375 4.703125 C 10.363281 5.023438 10.242188 5.320312 9.984375 5.59375 C 9.410156 6.195312 8.625 6.488281 7.625 6.46875 C 6.625 6.445312 5.726562 6.054688 4.9375 5.296875 C 4.144531 4.546875 3.75 3.644531 3.75 2.59375 C 3.75 1.539062 4.140625 0.609375 4.921875 -0.203125 L 15.265625 -11.046875 L 13.921875 -12.328125 C 13.691406 -12.546875 13.578125 -12.8125 13.578125 -13.125 C 13.585938 -13.445312 13.691406 -13.710938 13.890625 -13.921875 C 14.085938 -14.128906 14.34375 -14.242188 14.65625 -14.265625 C 14.976562 -14.285156 15.253906 -14.1875 15.484375 -13.96875 L 16.234375 -13.25 C 16.578125 -12.925781 16.832031 -12.769531 17 -12.78125 C 17.175781 -12.800781 17.40625 -12.953125 17.6875 -13.234375 L 19.296875 -14.9375 C 20.078125 -15.75 20.882812 -15.753906 21.71875 -14.953125 C 21.96875 -14.722656 21.972656 -14.484375 21.734375 -14.234375 L 18.625 -10.984375 L 20 -9.65625 C 20.5625 -9.125 20.570312 -8.570312 20.03125 -8 C 19.832031 -7.789062 19.582031 -7.675781 19.28125 -7.65625 C 18.988281 -7.644531 18.707031 -7.765625 18.4375 -8.015625 L 17.0625 -9.34375 L 6.75 1.46875 C 5.8125 2.445312 5.664062 3.242188 6.3125 3.859375 C 6.957031 4.484375 7.566406 4.492188 8.140625 3.890625 Z M 8.140625 3.890625 "/></g></g></g><g fill="#3b1b00" fill-opacity="1"><g transform="translate(111.667311, 298.504031)"><g><path d="M 6.421875 -8.265625 C 8.171875 -10.828125 10.347656 -12.4375 12.953125 -13.09375 C 15.554688 -13.757812 18.101562 -13.242188 20.59375 -11.546875 C 23.082031 -9.859375 24.5 -7.691406 24.84375 -5.046875 C 25.1875 -2.398438 24.484375 0.203125 22.734375 2.765625 C 20.992188 5.335938 18.820312 6.96875 16.21875 7.65625 C 13.613281 8.351562 11.035156 7.835938 8.484375 6.109375 C 5.941406 4.378906 4.523438 2.191406 4.234375 -0.453125 C 3.953125 -3.097656 4.679688 -5.703125 6.421875 -8.265625 Z M 6.703125 -0.625 C 6.929688 1.550781 7.914062 3.234375 9.65625 4.421875 C 11.40625 5.609375 13.335938 5.921875 15.453125 5.359375 C 17.566406 4.796875 19.316406 3.5 20.703125 1.46875 C 22.085938 -0.5625 22.644531 -2.664062 22.375 -4.84375 C 22.113281 -7.03125 21.125 -8.707031 19.40625 -9.875 C 17.6875 -11.050781 15.773438 -11.359375 13.671875 -10.796875 C 11.566406 -10.242188 9.820312 -8.953125 8.4375 -6.921875 C 7.0625 -4.898438 6.484375 -2.800781 6.703125 -0.625 Z M 6.703125 -0.625 "/></g></g></g><g fill="#3b1b00" fill-opacity="1"><g transform="translate(132.133574, 311.585693)"><g><path d="M 11.109375 -15.296875 L 10.09375 -15.78125 C 9.769531 -15.925781 9.5625 -16.140625 9.46875 -16.421875 C 9.382812 -16.710938 9.398438 -16.988281 9.515625 -17.25 C 9.847656 -17.9375 10.359375 -18.117188 11.046875 -17.796875 L 12.984375 -16.875 C 13.796875 -16.488281 14.046875 -15.929688 13.734375 -15.203125 L 6.296875 0.5 L 7.265625 0.953125 C 7.585938 1.109375 7.78125 1.328125 7.84375 1.609375 C 7.914062 1.898438 7.890625 2.175781 7.765625 2.4375 C 7.441406 3.113281 6.953125 3.296875 6.296875 2.984375 L 2.140625 1.015625 C 1.890625 0.898438 1.710938 0.695312 1.609375 0.40625 C 1.503906 0.113281 1.515625 -0.160156 1.640625 -0.421875 C 1.765625 -0.679688 1.976562 -0.875 2.28125 -1 C 2.582031 -1.125 2.859375 -1.128906 3.109375 -1.015625 L 4.125 -0.59375 Z M 15.5 -23.078125 C 16.019531 -22.828125 16.378906 -22.445312 16.578125 -21.9375 C 16.773438 -21.4375 16.757812 -20.945312 16.53125 -20.46875 C 16.300781 -19.988281 15.925781 -19.660156 15.40625 -19.484375 C 14.894531 -19.316406 14.382812 -19.351562 13.875 -19.59375 C 13.375 -19.84375 13.023438 -20.21875 12.828125 -20.71875 C 12.640625 -21.226562 12.660156 -21.722656 12.890625 -22.203125 C 13.117188 -22.679688 13.476562 -23.007812 13.96875 -23.1875 C 14.46875 -23.363281 14.976562 -23.328125 15.5 -23.078125 Z M 15.5 -23.078125 "/></g></g></g><g fill="#3b1b00" fill-opacity="1"><g transform="translate(143.17194, 316.813103)"><g><path d="M 11.140625 -16.171875 L 5.96875 -0.40625 L 6.75 -0.15625 C 7.082031 -0.0507812 7.300781 0.128906 7.40625 0.390625 C 7.519531 0.660156 7.523438 0.953125 7.421875 1.265625 C 7.191406 1.972656 6.734375 2.210938 6.046875 1.984375 L 2.140625 0.703125 C 1.421875 0.460938 1.175781 -0.0078125 1.40625 -0.71875 C 1.644531 -1.4375 2.125 -1.675781 2.84375 -1.4375 L 3.671875 -1.171875 L 8.734375 -16.640625 L 7.90625 -16.90625 C 7.550781 -17.019531 7.3125 -17.222656 7.1875 -17.515625 C 7.070312 -17.804688 7.0625 -18.09375 7.15625 -18.375 C 7.25 -18.664062 7.425781 -18.878906 7.6875 -19.015625 C 7.945312 -19.160156 8.253906 -19.175781 8.609375 -19.0625 L 16.21875 -16.5625 C 17.613281 -16.113281 18.570312 -15.472656 19.09375 -14.640625 C 19.613281 -13.816406 19.726562 -12.953125 19.4375 -12.046875 C 19.28125 -11.585938 19.03125 -11.203125 18.6875 -10.890625 C 18.351562 -10.585938 17.9375 -10.519531 17.4375 -10.6875 C 16.945312 -10.851562 16.578125 -11.222656 16.328125 -11.796875 C 16.078125 -12.378906 16.023438 -12.925781 16.171875 -13.4375 C 16.328125 -13.957031 16.460938 -14.273438 16.578125 -14.390625 Z M 11.140625 -16.171875 "/></g></g></g><g fill="#3b1b00" fill-opacity="1"><g transform="translate(160.34676, 322.085098)"><g/></g></g><g fill="#3b1b00" fill-opacity="1"><g transform="translate(174.335649, 324.799646)"><g><path d="M 17.15625 -1.875 L 19.1875 -1.828125 C 19.445312 -1.816406 19.660156 -1.691406 19.828125 -1.453125 C 19.992188 -1.222656 20.070312 -0.960938 20.0625 -0.671875 C 20.0625 -0.378906 19.972656 -0.125 19.796875 0.09375 C 19.617188 0.320312 19.398438 0.429688 19.140625 0.421875 L 15.5 0.34375 C 14.957031 0.332031 14.691406 0.0390625 14.703125 -0.53125 L 14.765625 -3 C 14.109375 -2 13.238281 -1.1875 12.15625 -0.5625 C 11.070312 0.0507812 9.90625 0.34375 8.65625 0.3125 C 6.257812 0.257812 4.378906 -0.738281 3.015625 -2.6875 C 1.660156 -4.632812 1.015625 -7.144531 1.078125 -10.21875 C 1.148438 -13.300781 1.914062 -15.84375 3.375 -17.84375 C 4.84375 -19.851562 6.773438 -20.832031 9.171875 -20.78125 C 10.472656 -20.75 11.648438 -20.414062 12.703125 -19.78125 C 13.753906 -19.144531 14.546875 -18.316406 15.078125 -17.296875 L 15.25 -25.046875 L 13.203125 -25.09375 C 12.515625 -25.101562 12.175781 -25.484375 12.1875 -26.234375 C 12.207031 -26.992188 12.5625 -27.367188 13.25 -27.359375 L 16.59375 -27.28125 C 17 -27.269531 17.285156 -27.179688 17.453125 -27.015625 C 17.628906 -26.859375 17.710938 -26.5625 17.703125 -26.125 Z M 3.484375 -10.140625 C 3.429688 -7.921875 3.863281 -5.960938 4.78125 -4.265625 C 5.695312 -2.566406 7.09375 -1.695312 8.96875 -1.65625 C 10.84375 -1.613281 12.316406 -2.316406 13.390625 -3.765625 C 14.460938 -5.222656 15.023438 -7.234375 15.078125 -9.796875 C 15.140625 -12.367188 14.691406 -14.503906 13.734375 -16.203125 C 12.773438 -17.898438 11.351562 -18.769531 9.46875 -18.8125 C 8.082031 -18.84375 6.929688 -18.363281 6.015625 -17.375 C 4.390625 -15.695312 3.546875 -13.285156 3.484375 -10.140625 Z M 3.484375 -10.140625 "/></g></g></g><g fill="#3b1b00" fill-opacity="1"><g transform="translate(198.779606, 324.799626)"><g><path d="M 11.5625 -16.5 C 11.257812 -17.625 10.5625 -18.632812 9.46875 -19.53125 C 8.375 -20.4375 7.148438 -20.773438 5.796875 -20.546875 C 4.453125 -20.328125 3.421875 -19.644531 2.703125 -18.5 C 1.984375 -17.351562 1.5625 -16.125 1.4375 -14.8125 Z M 9.53125 -1.140625 C 6.925781 -0.703125 4.671875 -1.363281 2.765625 -3.125 C 0.859375 -4.894531 -0.351562 -7.347656 -0.875 -10.484375 C -1.40625 -13.617188 -1.085938 -16.289062 0.078125 -18.5 C 1.253906 -20.707031 3.066406 -22.019531 5.515625 -22.4375 C 6.765625 -22.644531 7.9375 -22.554688 9.03125 -22.171875 C 10.125 -21.785156 11.007812 -21.226562 11.6875 -20.5 C 13.09375 -19 13.921875 -17.492188 14.171875 -15.984375 C 14.304688 -15.191406 14.003906 -14.734375 13.265625 -14.609375 L 1.3125 -12.609375 C 1.320312 -12.234375 1.382812 -11.703125 1.5 -11.015625 C 1.9375 -8.390625 2.882812 -6.335938 4.34375 -4.859375 C 5.8125 -3.378906 7.429688 -2.785156 9.203125 -3.078125 C 9.960938 -3.203125 10.617188 -3.523438 11.171875 -4.046875 C 11.734375 -4.566406 12.109375 -5.039062 12.296875 -5.46875 C 12.484375 -5.894531 12.6875 -6.460938 12.90625 -7.171875 C 13.125 -7.878906 13.523438 -8.285156 14.109375 -8.390625 C 14.953125 -8.523438 15.441406 -8.207031 15.578125 -7.4375 C 15.742188 -6.4375 15.296875 -5.222656 14.234375 -3.796875 C 13.171875 -2.378906 11.601562 -1.492188 9.53125 -1.140625 Z M 9.53125 -1.140625 "/></g></g></g><g fill="#3b1b00" fill-opacity="1"><g transform="translate(218.385363, 321.143099)"><g><path d="M -1.375 -17.84375 C -1.050781 -16.851562 0.34375 -15.96875 2.8125 -15.1875 L 4.5 -14.59375 C 5.445312 -14.300781 6.210938 -14.03125 6.796875 -13.78125 C 7.378906 -13.539062 8.070312 -13.054688 8.875 -12.328125 C 9.675781 -11.609375 10.242188 -10.757812 10.578125 -9.78125 C 11.085938 -8.238281 11.050781 -6.675781 10.46875 -5.09375 C 9.882812 -3.519531 8.6875 -2.429688 6.875 -1.828125 C 5.070312 -1.222656 3.457031 -1.160156 2.03125 -1.640625 C 0.613281 -2.128906 -0.316406 -3.050781 -0.765625 -4.40625 C -1.046875 -5.21875 -1.066406 -5.988281 -0.828125 -6.71875 C -0.585938 -7.457031 -0.222656 -7.910156 0.265625 -8.078125 C 0.765625 -8.242188 1.195312 -8.207031 1.5625 -7.96875 C 1.9375 -7.738281 2.207031 -7.378906 2.375 -6.890625 C 2.695312 -5.910156 2.609375 -5.066406 2.109375 -4.359375 C 2.359375 -3.816406 2.863281 -3.460938 3.625 -3.296875 C 4.394531 -3.128906 5.304688 -3.21875 6.359375 -3.5625 C 7.410156 -3.914062 8.140625 -4.585938 8.546875 -5.578125 C 8.953125 -6.578125 9.007812 -7.507812 8.71875 -8.375 C 8.4375 -9.238281 7.984375 -9.910156 7.359375 -10.390625 C 6.742188 -10.878906 6.171875 -11.222656 5.640625 -11.421875 C 5.117188 -11.617188 4.300781 -11.890625 3.1875 -12.234375 L 2.265625 -12.53125 C 0.640625 -13.019531 -0.625 -13.539062 -1.53125 -14.09375 C -2.445312 -14.65625 -3.09375 -15.507812 -3.46875 -16.65625 C -3.851562 -17.800781 -3.765625 -18.894531 -3.203125 -19.9375 C -2.640625 -20.976562 -1.753906 -21.695312 -0.546875 -22.09375 C 0.660156 -22.5 1.859375 -22.515625 3.046875 -22.140625 C 4.234375 -21.773438 4.992188 -21.085938 5.328125 -20.078125 C 5.484375 -19.609375 5.492188 -19.175781 5.359375 -18.78125 C 5.234375 -18.394531 4.953125 -18.128906 4.515625 -17.984375 C 4.078125 -17.835938 3.5625 -17.945312 2.96875 -18.3125 C 2.375 -18.675781 2 -19.082031 1.84375 -19.53125 C 1.695312 -19.988281 1.632812 -20.40625 1.65625 -20.78125 C 1.351562 -20.882812 0.835938 -20.8125 0.109375 -20.5625 C -0.617188 -20.320312 -1.085938 -19.929688 -1.296875 -19.390625 C -1.515625 -18.847656 -1.539062 -18.332031 -1.375 -17.84375 Z M -1.375 -17.84375 "/></g></g></g><g fill="#3b1b00" fill-opacity="1"><g transform="translate(234.163923, 315.592627)"><g/></g></g><g fill="#3b1b00" fill-opacity="1"><g transform="translate(246.964052, 309.505729)"><g><path d="M -5.921875 -17.25 C -6.046875 -19.851562 -5.078125 -21.863281 -3.015625 -23.28125 C -0.960938 -24.707031 1.203125 -25 3.484375 -24.15625 C 5.765625 -23.320312 7.785156 -21.625 9.546875 -19.0625 C 11.316406 -16.507812 12.164062 -14.015625 12.09375 -11.578125 C 12.03125 -9.140625 10.957031 -7.203125 8.875 -5.765625 C 6.800781 -4.328125 4.640625 -3.972656 2.390625 -4.703125 C 0.148438 -5.441406 -1.945312 -7.226562 -3.90625 -10.0625 L -12.34375 -22.28125 L -13.265625 -21.640625 C -13.785156 -21.273438 -14.257812 -21.398438 -14.6875 -22.015625 C -15.113281 -22.640625 -15.066406 -23.132812 -14.546875 -23.5 L -10.703125 -26.15625 C -10.429688 -26.332031 -10.164062 -26.378906 -9.90625 -26.296875 C -9.644531 -26.210938 -9.425781 -26.046875 -9.25 -25.796875 C -9.082031 -25.546875 -9 -25.273438 -9 -24.984375 C -9.007812 -24.703125 -9.148438 -24.472656 -9.421875 -24.296875 L -10.34375 -23.65625 Z M -1.75 -10.921875 C -0.21875 -8.703125 1.414062 -7.320312 3.15625 -6.78125 C 4.894531 -6.238281 6.382812 -6.398438 7.625 -7.265625 C 8.875 -8.128906 9.597656 -9.210938 9.796875 -10.515625 C 10.140625 -12.710938 9.414062 -15.101562 7.625 -17.6875 C 6.4375 -19.394531 5.03125 -20.742188 3.40625 -21.734375 C 2.5625 -22.234375 1.660156 -22.488281 0.703125 -22.5 C -0.242188 -22.507812 -1.144531 -22.21875 -2 -21.625 C -3.5 -20.582031 -4.21875 -19.09375 -4.15625 -17.15625 C -4.09375 -15.21875 -3.289062 -13.140625 -1.75 -10.921875 Z M -1.75 -10.921875 "/></g></g></g><g fill="#3b1b00" fill-opacity="1"><g transform="translate(266.14136, 295.84272)"><g><path d="M -7.09375 -7.6875 C -9.34375 -9.832031 -10.578125 -12.238281 -10.796875 -14.90625 C -11.023438 -17.582031 -10.097656 -20.007812 -8.015625 -22.1875 C -5.941406 -24.375 -3.566406 -25.421875 -0.890625 -25.328125 C 1.773438 -25.234375 4.226562 -24.113281 6.46875 -21.96875 C 8.71875 -19.820312 9.96875 -17.410156 10.21875 -14.734375 C 10.46875 -12.054688 9.53125 -9.601562 7.40625 -7.375 C 5.28125 -5.144531 2.890625 -4.101562 0.234375 -4.25 C -2.410156 -4.394531 -4.851562 -5.539062 -7.09375 -7.6875 Z M 0.484375 -6.703125 C 2.671875 -6.578125 4.492188 -7.273438 5.953125 -8.796875 C 7.410156 -10.328125 8.035156 -12.179688 7.828125 -14.359375 C 7.617188 -16.535156 6.625 -18.472656 4.84375 -20.171875 C 3.0625 -21.867188 1.070312 -22.765625 -1.125 -22.859375 C -3.320312 -22.960938 -5.140625 -22.265625 -6.578125 -20.765625 C -8.015625 -19.265625 -8.628906 -17.425781 -8.421875 -15.25 C -8.210938 -13.082031 -7.222656 -11.148438 -5.453125 -9.453125 C -3.679688 -7.753906 -1.703125 -6.835938 0.484375 -6.703125 Z M 0.484375 -6.703125 "/></g></g></g><g fill="#3b1b00" fill-opacity="1"><g transform="translate(283.182035, 277.414388)"><g><path d="M -7.71875 -22.859375 L -8.234375 -22.015625 C -8.410156 -21.734375 -8.65625 -21.5625 -8.96875 -21.5 C -9.28125 -21.445312 -9.554688 -21.492188 -9.796875 -21.640625 C -10.046875 -21.796875 -10.210938 -22.023438 -10.296875 -22.328125 C -10.390625 -22.628906 -10.347656 -22.921875 -10.171875 -23.203125 L -7.890625 -26.921875 C -7.535156 -27.515625 -7.035156 -27.613281 -6.390625 -27.21875 C -5.742188 -26.820312 -5.597656 -26.328125 -5.953125 -25.734375 L -6.453125 -24.921875 L 7.421875 -16.421875 L 8.25 -17.78125 C 8.601562 -18.351562 9.101562 -18.445312 9.75 -18.0625 C 10.039062 -17.875 10.21875 -17.640625 10.28125 -17.359375 C 10.34375 -17.085938 10.304688 -16.835938 10.171875 -16.609375 L 8.578125 -14 C 8.390625 -13.695312 8.207031 -13.523438 8.03125 -13.484375 C 7.851562 -13.441406 7.617188 -13.507812 7.328125 -13.6875 L 4.921875 -15.15625 C 6.347656 -12.351562 6.359375 -9.8125 4.953125 -7.53125 C 3.847656 -5.726562 2.425781 -4.765625 0.6875 -4.640625 C -1.050781 -4.523438 -2.722656 -4.957031 -4.328125 -5.9375 L -14.328125 -12.0625 L -14.828125 -11.25 C -14.992188 -10.988281 -15.222656 -10.84375 -15.515625 -10.8125 C -15.804688 -10.789062 -16.070312 -10.851562 -16.3125 -11 C -16.5625 -11.15625 -16.738281 -11.367188 -16.84375 -11.640625 C -16.957031 -11.910156 -16.929688 -12.175781 -16.765625 -12.4375 L -14.453125 -16.21875 C -14.285156 -16.476562 -14.050781 -16.632812 -13.75 -16.6875 C -13.445312 -16.75 -13.171875 -16.703125 -12.921875 -16.546875 C -12.679688 -16.398438 -12.507812 -16.175781 -12.40625 -15.875 C -12.3125 -15.570312 -12.347656 -15.289062 -12.515625 -15.03125 L -13.0625 -14.140625 L -3.015625 -8 C -1.929688 -7.332031 -0.773438 -7.007812 0.453125 -7.03125 C 1.679688 -7.0625 2.679688 -7.707031 3.453125 -8.96875 C 4.234375 -10.238281 4.3125 -11.800781 3.6875 -13.65625 C 3.070312 -15.507812 1.773438 -17.039062 -0.203125 -18.25 Z M -7.71875 -22.859375 "/></g></g></g><g fill="#3b1b00" fill-opacity="1"><g transform="translate(296.171698, 255.294454)"><g><path d="M 3.234375 -9.203125 C 4.140625 -8.941406 4.953125 -8.976562 5.671875 -9.3125 C 6.398438 -9.65625 6.898438 -10.210938 7.171875 -10.984375 C 7.441406 -11.753906 7.46875 -12.363281 7.25 -12.8125 C 7.039062 -13.269531 6.6875 -13.585938 6.1875 -13.765625 C 5.269531 -14.085938 4.539062 -13.472656 4 -11.921875 C 3.6875 -11.015625 3.429688 -10.109375 3.234375 -9.203125 Z M -2.90625 -12.0625 C -2.25 -13.894531 -2.269531 -15.617188 -2.96875 -17.234375 C -3.675781 -18.859375 -4.867188 -19.96875 -6.546875 -20.5625 C -8.234375 -21.15625 -9.914062 -20.941406 -11.59375 -19.921875 C -13.269531 -18.898438 -14.421875 -17.5 -15.046875 -15.71875 C -15.671875 -13.9375 -15.65625 -12.207031 -15 -10.53125 C -14.351562 -8.851562 -13.164062 -7.707031 -11.4375 -7.09375 C -9.707031 -6.488281 -8.015625 -6.707031 -6.359375 -7.75 C -4.710938 -8.789062 -3.5625 -10.226562 -2.90625 -12.0625 Z M -5.765625 -22.671875 C -3.585938 -21.910156 -2.066406 -20.421875 -1.203125 -18.203125 C -0.347656 -15.992188 -0.351562 -13.648438 -1.21875 -11.171875 C -1.5625 -10.191406 -2.03125 -9.296875 -2.625 -8.484375 L -0.3125 -5.890625 L 2.171875 -13.015625 C 2.660156 -14.398438 3.332031 -15.285156 4.1875 -15.671875 C 5.039062 -16.066406 5.921875 -16.101562 6.828125 -15.78125 C 7.742188 -15.457031 8.40625 -14.765625 8.8125 -13.703125 C 9.21875 -12.640625 9.191406 -11.457031 8.734375 -10.15625 C 8.285156 -8.863281 7.394531 -7.84375 6.0625 -7.09375 C 4.726562 -6.34375 3.46875 -6.144531 2.28125 -6.5 L 1.203125 -3.4375 C 0.898438 -2.5625 0.445312 -2.226562 -0.15625 -2.4375 C -0.332031 -2.5 -0.515625 -2.640625 -0.703125 -2.859375 L -4.03125 -6.828125 C -5.0625 -5.816406 -6.328125 -5.128906 -7.828125 -4.765625 C -9.335938 -4.410156 -10.804688 -4.488281 -12.234375 -5 C -14.367188 -5.738281 -15.863281 -7.21875 -16.71875 -9.4375 C -17.570312 -11.664062 -17.5625 -14.019531 -16.6875 -16.5 C -16.28125 -17.644531 -15.789062 -18.625 -15.21875 -19.4375 L -17.140625 -21.796875 C -18.171875 -23.046875 -18.484375 -24.238281 -18.078125 -25.375 C -17.816406 -26.144531 -17.304688 -26.695312 -16.546875 -27.03125 C -15.796875 -27.363281 -15.148438 -27.4375 -14.609375 -27.25 C -14.078125 -27.0625 -13.722656 -26.796875 -13.546875 -26.453125 C -13.378906 -26.117188 -13.367188 -25.738281 -13.515625 -25.3125 C -13.671875 -24.894531 -14.03125 -24.523438 -14.59375 -24.203125 C -15.164062 -23.890625 -15.773438 -23.78125 -16.421875 -23.875 L -13.953125 -20.828125 C -12.773438 -21.835938 -11.46875 -22.519531 -10.03125 -22.875 C -8.601562 -23.238281 -7.179688 -23.171875 -5.765625 -22.671875 Z M -5.765625 -22.671875 "/></g></g></g><g fill="#3b1b00" fill-opacity="1"><g transform="translate(303.5012, 232.281787)"><g><path d="M -17.640625 -6.78125 L -17.84375 -5.671875 C -17.90625 -5.328125 -18.0625 -5.078125 -18.3125 -4.921875 C -18.5625 -4.773438 -18.828125 -4.726562 -19.109375 -4.78125 C -19.859375 -4.914062 -20.164062 -5.347656 -20.03125 -6.078125 L -19.640625 -8.203125 C -19.472656 -9.085938 -19 -9.476562 -18.21875 -9.375 L -1.140625 -6.203125 L -0.953125 -7.265625 C -0.890625 -7.609375 -0.722656 -7.847656 -0.453125 -7.984375 C -0.191406 -8.128906 0.078125 -8.175781 0.359375 -8.125 C 1.097656 -7.988281 1.398438 -7.566406 1.265625 -6.859375 L 0.4375 -2.328125 C 0.382812 -2.054688 0.234375 -1.832031 -0.015625 -1.65625 C -0.273438 -1.488281 -0.546875 -1.429688 -0.828125 -1.484375 C -1.109375 -1.535156 -1.347656 -1.6875 -1.546875 -1.9375 C -1.753906 -2.195312 -1.832031 -2.460938 -1.78125 -2.734375 L -1.640625 -3.828125 Z M -26.296875 -9.046875 C -26.191406 -9.617188 -25.914062 -10.0625 -25.46875 -10.375 C -25.03125 -10.6875 -24.546875 -10.796875 -24.015625 -10.703125 C -23.492188 -10.609375 -23.085938 -10.335938 -22.796875 -9.890625 C -22.503906 -9.441406 -22.410156 -8.9375 -22.515625 -8.375 C -22.617188 -7.820312 -22.882812 -7.390625 -23.3125 -7.078125 C -23.75 -6.765625 -24.226562 -6.65625 -24.75 -6.75 C -25.28125 -6.84375 -25.695312 -7.109375 -26 -7.546875 C -26.300781 -7.984375 -26.398438 -8.484375 -26.296875 -9.046875 Z M -26.296875 -9.046875 "/></g></g></g><g fill="#3b1b00" fill-opacity="1"><g transform="translate(305.790982, 220.17605)"><g><path d="M -13.671875 -14.8125 C -14.828125 -14.75 -15.960938 -14.28125 -17.078125 -13.40625 C -18.191406 -12.53125 -18.78125 -11.40625 -18.84375 -10.03125 C -18.914062 -8.664062 -18.46875 -7.515625 -17.5 -6.578125 C -16.53125 -5.640625 -15.421875 -4.96875 -14.171875 -4.5625 Z M 0.90625 -9.546875 C 0.78125 -6.921875 -0.34375 -4.863281 -2.46875 -3.375 C -4.601562 -1.882812 -7.253906 -1.21875 -10.421875 -1.375 C -13.597656 -1.53125 -16.140625 -2.414062 -18.046875 -4.03125 C -19.960938 -5.644531 -20.859375 -7.6875 -20.734375 -10.15625 C -20.671875 -11.425781 -20.332031 -12.550781 -19.71875 -13.53125 C -19.113281 -14.519531 -18.382812 -15.269531 -17.53125 -15.78125 C -15.769531 -16.84375 -14.125 -17.335938 -12.59375 -17.265625 C -11.789062 -17.222656 -11.410156 -16.828125 -11.453125 -16.078125 L -12.03125 -3.96875 C -11.664062 -3.894531 -11.132812 -3.84375 -10.4375 -3.8125 C -7.78125 -3.6875 -5.570312 -4.175781 -3.8125 -5.28125 C -2.050781 -6.394531 -1.128906 -7.847656 -1.046875 -9.640625 C -1.003906 -10.410156 -1.175781 -11.125 -1.5625 -11.78125 C -1.957031 -12.4375 -2.34375 -12.898438 -2.71875 -13.171875 C -3.09375 -13.453125 -3.601562 -13.773438 -4.25 -14.140625 C -4.90625 -14.515625 -5.21875 -14.992188 -5.1875 -15.578125 C -5.144531 -16.441406 -4.734375 -16.851562 -3.953125 -16.8125 C -2.941406 -16.757812 -1.851562 -16.0625 -0.6875 -14.71875 C 0.476562 -13.375 1.007812 -11.648438 0.90625 -9.546875 Z M 0.90625 -9.546875 "/></g></g></g><g fill="#3b1b00" fill-opacity="1"><g transform="translate(306.394328, 200.239415)"><g><path d="M -17.734375 -2.453125 C -16.691406 -2.554688 -15.523438 -3.726562 -14.234375 -5.96875 L -13.296875 -7.5 C -12.816406 -8.363281 -12.390625 -9.054688 -12.015625 -9.578125 C -11.648438 -10.097656 -11.03125 -10.671875 -10.15625 -11.296875 C -9.28125 -11.929688 -8.328125 -12.304688 -7.296875 -12.421875 C -5.691406 -12.585938 -4.175781 -12.21875 -2.75 -11.3125 C -1.332031 -10.40625 -0.519531 -9.003906 -0.3125 -7.109375 C -0.113281 -5.210938 -0.398438 -3.617188 -1.171875 -2.328125 C -1.953125 -1.046875 -3.046875 -0.332031 -4.453125 -0.1875 C -5.316406 -0.09375 -6.082031 -0.238281 -6.75 -0.625 C -7.414062 -1.007812 -7.773438 -1.460938 -7.828125 -1.984375 C -7.878906 -2.503906 -7.753906 -2.914062 -7.453125 -3.21875 C -7.160156 -3.53125 -6.753906 -3.71875 -6.234375 -3.78125 C -5.203125 -3.882812 -4.394531 -3.617188 -3.8125 -2.984375 C -3.238281 -3.109375 -2.785156 -3.53125 -2.453125 -4.25 C -2.117188 -4.96875 -2.007812 -5.878906 -2.125 -6.984375 C -2.25 -8.085938 -2.75 -8.941406 -3.625 -9.546875 C -4.507812 -10.148438 -5.40625 -10.398438 -6.3125 -10.296875 C -7.21875 -10.203125 -7.972656 -9.898438 -8.578125 -9.390625 C -9.191406 -8.890625 -9.648438 -8.40625 -9.953125 -7.9375 C -10.265625 -7.476562 -10.707031 -6.738281 -11.28125 -5.71875 L -11.765625 -4.890625 C -12.578125 -3.410156 -13.351562 -2.28125 -14.09375 -1.5 C -14.84375 -0.71875 -15.816406 -0.257812 -17.015625 -0.125 C -18.210938 0 -19.257812 -0.320312 -20.15625 -1.09375 C -21.050781 -1.875 -21.566406 -2.894531 -21.703125 -4.15625 C -21.835938 -5.425781 -21.597656 -6.601562 -20.984375 -7.6875 C -20.378906 -8.769531 -19.550781 -9.367188 -18.5 -9.484375 C -18 -9.535156 -17.570312 -9.453125 -17.21875 -9.234375 C -16.863281 -9.023438 -16.660156 -8.691406 -16.609375 -8.234375 C -16.554688 -7.773438 -16.769531 -7.296875 -17.25 -6.796875 C -17.738281 -6.296875 -18.21875 -6.019531 -18.6875 -5.96875 C -19.164062 -5.914062 -19.582031 -5.941406 -19.9375 -6.046875 C -20.113281 -5.765625 -20.160156 -5.242188 -20.078125 -4.484375 C -19.992188 -3.722656 -19.707031 -3.175781 -19.21875 -2.84375 C -18.726562 -2.519531 -18.234375 -2.390625 -17.734375 -2.453125 Z M -17.734375 -2.453125 "/></g></g></g><g clip-path="url(#ae6462a580)"><path fill="#f5d6c3" d="M 103.601562 177.472656 C 109.035156 147.578125 140.363281 105.523438 207.347656 114.226562 C 283.441406 124.105469 277.503906 212.054688 264.660156 232.800781 C 253.417969 250.980469 209.15625 296.535156 154.972656 277.277344 C 110.511719 261.464844 98.566406 205.085938 103.601562 177.472656 " fill-opacity="1" fill-rule="nonzero"/></g><g clip-path="url(#7abd37bc72)"><path fill="#3b1b00" d="M 81.210938 156.859375 C 81.210938 157.449219 81.269531 158.035156 81.386719 158.613281 C 81.503906 159.191406 81.671875 159.753906 81.898438 160.300781 C 82.125 160.84375 82.402344 161.363281 82.730469 161.851562 C 83.0625 162.34375 83.433594 162.796875 83.851562 163.214844 C 84.269531 163.632812 84.722656 164.007812 85.214844 164.335938 C 85.703125 164.664062 86.222656 164.941406 86.769531 165.167969 C 87.3125 165.394531 87.875 165.5625 88.453125 165.679688 C 89.03125 165.796875 89.617188 165.855469 90.207031 165.855469 C 89.617188 165.855469 89.03125 165.914062 88.453125 166.03125 C 87.875 166.148438 87.3125 166.320312 86.769531 166.546875 C 86.222656 166.773438 85.703125 167.050781 85.214844 167.378906 C 84.722656 167.707031 84.269531 168.078125 83.851562 168.496094 C 83.433594 168.914062 83.0625 169.367188 82.730469 169.859375 C 82.402344 170.351562 82.125 170.867188 81.898438 171.414062 C 81.671875 171.957031 81.503906 172.519531 81.386719 173.097656 C 81.269531 173.679688 81.210938 174.261719 81.210938 174.855469 C 81.210938 174.902344 81.210938 174.949219 81.210938 175 L 81.210938 174.855469 C 81.210938 174.261719 81.152344 173.679688 81.035156 173.097656 C 80.917969 172.519531 80.746094 171.957031 80.519531 171.414062 C 80.292969 170.867188 80.015625 170.351562 79.6875 169.859375 C 79.359375 169.367188 78.988281 168.914062 78.570312 168.496094 C 78.152344 168.078125 77.699219 167.707031 77.207031 167.378906 C 76.714844 167.050781 76.199219 166.773438 75.652344 166.546875 C 75.109375 166.320312 74.546875 166.148438 73.96875 166.03125 C 73.386719 165.914062 72.804688 165.855469 72.210938 165.855469 C 72.804688 165.855469 73.386719 165.796875 73.96875 165.679688 C 74.546875 165.5625 75.109375 165.394531 75.652344 165.167969 C 76.199219 164.941406 76.714844 164.664062 77.207031 164.335938 C 77.699219 164.007812 78.152344 163.632812 78.570312 163.214844 C 78.988281 162.796875 79.359375 162.34375 79.6875 161.851562 C 80.015625 161.363281 80.292969 160.84375 80.519531 160.300781 C 80.746094 159.753906 80.917969 159.191406 81.035156 158.613281 C 81.152344 158.035156 81.210938 157.449219 81.210938 156.859375 L 81.210938 156.714844 C 81.210938 156.761719 81.210938 156.808594 81.210938 156.859375 Z M 81.210938 156.859375 " fill-opacity="1" fill-rule="nonzero"/></g><g clip-path="url(#723b978cae)"><path fill="#3b1b00" d="M 85.886719 147.496094 C 85.886719 147.796875 85.917969 148.097656 85.976562 148.390625 C 86.035156 148.6875 86.125 148.976562 86.238281 149.253906 C 86.355469 149.535156 86.496094 149.800781 86.664062 150.050781 C 86.832031 150.300781 87.023438 150.535156 87.238281 150.746094 C 87.449219 150.960938 87.683594 151.152344 87.933594 151.320312 C 88.183594 151.488281 88.449219 151.628906 88.730469 151.746094 C 89.007812 151.859375 89.296875 151.949219 89.589844 152.007812 C 89.886719 152.066406 90.1875 152.097656 90.488281 152.097656 C 90.1875 152.097656 89.886719 152.128906 89.589844 152.1875 C 89.296875 152.246094 89.007812 152.335938 88.730469 152.449219 C 88.449219 152.566406 88.183594 152.707031 87.933594 152.875 C 87.683594 153.042969 87.449219 153.234375 87.238281 153.449219 C 87.023438 153.660156 86.832031 153.894531 86.664062 154.144531 C 86.496094 154.394531 86.355469 154.660156 86.238281 154.941406 C 86.125 155.21875 86.035156 155.507812 85.976562 155.800781 C 85.917969 156.097656 85.886719 156.398438 85.886719 156.699219 L 85.886719 156.773438 C 85.886719 156.75 85.886719 156.722656 85.886719 156.699219 C 85.886719 156.398438 85.855469 156.097656 85.796875 155.800781 C 85.738281 155.507812 85.648438 155.21875 85.535156 154.941406 C 85.417969 154.660156 85.277344 154.394531 85.109375 154.144531 C 84.941406 153.894531 84.75 153.660156 84.535156 153.449219 C 84.324219 153.234375 84.089844 153.042969 83.839844 152.875 C 83.589844 152.707031 83.324219 152.566406 83.042969 152.449219 C 82.765625 152.335938 82.476562 152.246094 82.183594 152.1875 C 81.886719 152.128906 81.585938 152.097656 81.285156 152.097656 C 81.585938 152.097656 81.886719 152.066406 82.183594 152.007812 C 82.476562 151.949219 82.765625 151.859375 83.042969 151.746094 C 83.324219 151.628906 83.589844 151.488281 83.839844 151.320312 C 84.089844 151.152344 84.324219 150.960938 84.535156 150.746094 C 84.75 150.535156 84.941406 150.300781 85.109375 150.050781 C 85.277344 149.800781 85.417969 149.535156 85.535156 149.253906 C 85.648438 148.976562 85.738281 148.6875 85.796875 148.390625 C 85.855469 148.097656 85.886719 147.796875 85.886719 147.496094 C 85.886719 147.46875 85.886719 147.445312 85.886719 147.421875 Z M 85.886719 147.496094 " fill-opacity="1" fill-rule="nonzero"/></g><g clip-path="url(#6a1519c816)"><path fill="#3b1b00" d="M 293.355469 156.859375 C 293.355469 157.449219 293.296875 158.035156 293.179688 158.613281 C 293.0625 159.191406 292.890625 159.753906 292.664062 160.300781 C 292.4375 160.84375 292.160156 161.363281 291.832031 161.851562 C 291.503906 162.34375 291.132812 162.796875 290.714844 163.214844 C 290.296875 163.632812 289.84375 164.007812 289.351562 164.335938 C 288.863281 164.664062 288.34375 164.941406 287.796875 165.167969 C 287.253906 165.394531 286.691406 165.5625 286.113281 165.679688 C 285.53125 165.796875 284.949219 165.855469 284.359375 165.855469 C 284.949219 165.855469 285.53125 165.914062 286.113281 166.03125 C 286.691406 166.148438 287.253906 166.320312 287.796875 166.546875 C 288.34375 166.773438 288.863281 167.050781 289.351562 167.378906 C 289.84375 167.707031 290.296875 168.078125 290.714844 168.496094 C 291.132812 168.914062 291.503906 169.367188 291.832031 169.859375 C 292.160156 170.351562 292.4375 170.867188 292.664062 171.414062 C 292.890625 171.957031 293.0625 172.519531 293.179688 173.097656 C 293.296875 173.679688 293.355469 174.261719 293.355469 174.855469 C 293.355469 174.902344 293.355469 174.949219 293.355469 175 L 293.355469 174.855469 C 293.355469 174.261719 293.414062 173.679688 293.53125 173.097656 C 293.648438 172.519531 293.820312 171.957031 294.046875 171.414062 C 294.273438 170.867188 294.550781 170.351562 294.878906 169.859375 C 295.207031 169.367188 295.578125 168.914062 295.996094 168.496094 C 296.414062 168.078125 296.867188 167.707031 297.359375 167.378906 C 297.847656 167.050781 298.367188 166.773438 298.914062 166.546875 C 299.457031 166.320312 300.019531 166.148438 300.597656 166.03125 C 301.179688 165.914062 301.761719 165.855469 302.351562 165.855469 C 301.761719 165.855469 301.179688 165.796875 300.597656 165.679688 C 300.019531 165.5625 299.457031 165.394531 298.914062 165.167969 C 298.367188 164.941406 297.847656 164.664062 297.359375 164.335938 C 296.867188 164.007812 296.414062 163.632812 295.996094 163.214844 C 295.578125 162.796875 295.207031 162.34375 294.878906 161.851562 C 294.550781 161.363281 294.273438 160.84375 294.046875 160.300781 C 293.820312 159.753906 293.648438 159.191406 293.53125 158.613281 C 293.414062 158.035156 293.355469 157.449219 293.355469 156.859375 L 293.355469 156.714844 C 293.355469 156.761719 293.355469 156.808594 293.355469 156.859375 Z M 293.355469 156.859375 " fill-opacity="1" fill-rule="nonzero"/></g><g clip-path="url(#7243fcf2d9)"><path fill="#3b1b00" d="M 288.679688 147.496094 C 288.679688 147.796875 288.648438 148.097656 288.589844 148.390625 C 288.53125 148.6875 288.441406 148.976562 288.328125 149.253906 C 288.210938 149.535156 288.070312 149.800781 287.902344 150.050781 C 287.734375 150.300781 287.542969 150.535156 287.328125 150.746094 C 287.117188 150.960938 286.882812 151.152344 286.632812 151.320312 C 286.382812 151.488281 286.117188 151.628906 285.835938 151.746094 C 285.558594 151.859375 285.269531 151.949219 284.972656 152.007812 C 284.679688 152.066406 284.378906 152.097656 284.078125 152.097656 C 284.378906 152.097656 284.679688 152.128906 284.972656 152.1875 C 285.269531 152.246094 285.558594 152.335938 285.835938 152.449219 C 286.117188 152.566406 286.382812 152.707031 286.632812 152.875 C 286.882812 153.042969 287.117188 153.234375 287.328125 153.449219 C 287.542969 153.660156 287.734375 153.894531 287.902344 154.144531 C 288.070312 154.394531 288.210938 154.660156 288.328125 154.941406 C 288.441406 155.21875 288.53125 155.507812 288.589844 155.800781 C 288.648438 156.097656 288.679688 156.398438 288.679688 156.699219 L 288.679688 156.773438 C 288.679688 156.75 288.679688 156.722656 288.679688 156.699219 C 288.679688 156.398438 288.710938 156.097656 288.769531 155.800781 C 288.828125 155.507812 288.917969 155.21875 289.03125 154.941406 C 289.148438 154.660156 289.289062 154.394531 289.457031 154.144531 C 289.625 153.894531 289.816406 153.660156 290.03125 153.449219 C 290.242188 153.234375 290.476562 153.042969 290.726562 152.875 C 290.976562 152.707031 291.242188 152.566406 291.523438 152.449219 C 291.800781 152.335938 292.089844 152.246094 292.382812 152.1875 C 292.679688 152.128906 292.980469 152.097656 293.28125 152.097656 C 292.980469 152.097656 292.679688 152.066406 292.382812 152.007812 C 292.085938 151.949219 291.800781 151.859375 291.519531 151.746094 C 291.242188 151.628906 290.976562 151.488281 290.726562 151.320312 C 290.476562 151.152344 290.242188 150.960938 290.03125 150.746094 C 289.816406 150.535156 289.625 150.300781 289.457031 150.050781 C 289.289062 149.800781 289.148438 149.535156 289.03125 149.253906 C 288.914062 148.976562 288.828125 148.6875 288.769531 148.390625 C 288.710938 148.097656 288.679688 147.796875 288.679688 147.496094 C 288.679688 147.46875 288.679688 147.445312 288.679688 147.421875 Z M 288.679688 147.496094 " fill-opacity="1" fill-rule="nonzero"/></g><path fill="#1c0c0c" d="M 224.988281 246.542969 C 223.867188 247.4375 222.898438 248.222656 221.777344 248.96875 C 218.402344 251.347656 214.746094 253.164062 210.808594 254.417969 C 202.035156 257.179688 193.601562 258.074219 184.421875 257.960938 C 177.292969 257.960938 170.875 257.179688 164.117188 254.753906 C 158.445312 252.847656 153.371094 250.535156 148.480469 246.652344 C 146.527344 245.042969 144.824219 243.203125 143.367188 241.128906 C 142.707031 240.167969 142.121094 239.160156 141.613281 238.105469 C 141.550781 238 141.460938 237.929688 141.339844 237.894531 C 141.222656 237.863281 141.105469 237.878906 141 237.9375 C 140.890625 238 140.820312 238.09375 140.785156 238.210938 C 140.753906 238.332031 140.769531 238.445312 140.832031 238.554688 C 144.488281 246.542969 152.25 251.320312 159.902344 254.417969 C 164.136719 256.152344 168.503906 257.445312 173 258.296875 C 177.332031 258.933594 181.6875 259.230469 186.0625 259.191406 C 194.609375 259.082031 203.042969 258.074219 211.144531 255.535156 C 215.453125 254.136719 219.433594 252.097656 223.085938 249.414062 C 224.1875 248.679688 225.234375 247.871094 226.21875 246.988281 C 226.445312 246.652344 226.667969 246.429688 226.554688 246.09375 C 226.445312 245.757812 225.546875 246.207031 224.988281 246.542969 Z M 224.988281 246.542969 " fill-opacity="1" fill-rule="nonzero"/><g clip-path="url(#cbe6d3be8a)"><path fill="#1c0c0c" d="M 242.15625 145.214844 C 242.082031 135.8125 219.800781 129.875 195.953125 128.609375 C 195.058594 126.628906 194.125 124.765625 193.378906 123.007812 C 192.632812 121.253906 191.625 118.605469 190.390625 116.144531 C 189.71875 115.136719 189.273438 113.71875 188.191406 113.15625 C 187.109375 112.597656 187.183594 113.828125 187.292969 114.386719 C 187.40625 114.949219 187.183594 115.808594 187.183594 116.589844 C 187.074219 118.539062 186.8125 120.46875 186.398438 122.375 C 185.914062 124.429688 185.355469 126.441406 184.683594 128.457031 C 158.820312 128.867188 133.066406 135.0625 133.066406 145.214844 C 133.0625 145.316406 133.078125 145.417969 133.105469 145.515625 L 132.84375 145.402344 C 132.84375 147.640625 132.84375 149.957031 132.957031 152.195312 C 133.066406 161.933594 133.066406 172.160156 133.515625 182.125 C 133.738281 186.007812 133.738281 190 133.738281 193.882812 C 133.738281 196.308594 133.851562 198.996094 133.851562 201.53125 C 133.964844 204.964844 134.1875 208.398438 134.300781 211.832031 C 134.410156 214.410156 134.636719 217.058594 134.636719 219.597656 C 134.820312 223.140625 134.933594 227.023438 135.269531 231.351562 C 135.363281 231.796875 135.398438 232.242188 135.382812 232.695312 C 135.492188 233.777344 135.605469 234.898438 135.828125 236.128906 C 136.054688 237.359375 137.0625 238.777344 137.84375 240.121094 C 139.488281 242.773438 141.949219 246.542969 143.816406 248.445312 C 147.921875 252.324219 155.460938 256.617188 162.328125 258.96875 C 169.195312 261.320312 176.957031 262.402344 185.28125 262.402344 C 189.367188 262.382812 193.4375 262.085938 197.484375 261.507812 C 208.679688 260.089844 220.882812 255.757812 226.964844 251.207031 C 229.878906 249.078125 234.09375 244.675781 236.632812 240.121094 C 237.410156 238.863281 238.03125 237.53125 238.5 236.128906 C 238.835938 235.007812 238.835938 233.890625 238.945312 232.808594 C 239.039062 232.363281 239.078125 231.917969 239.058594 231.464844 C 239.394531 227.132812 239.507812 223.253906 239.730469 219.707031 C 239.84375 217.171875 239.953125 214.484375 240.066406 211.945312 C 240.289062 208.625 240.402344 205.078125 240.515625 201.644531 C 240.625 199.105469 240.625 196.417969 240.625 193.992188 C 240.738281 190.113281 240.738281 186.117188 240.851562 182.238281 C 241.296875 172.273438 241.296875 162.160156 241.410156 152.304688 L 241.410156 148.125 C 241.898438 147.21875 242.148438 146.246094 242.15625 145.214844 Z M 188.488281 115.917969 C 190.167969 119.128906 195.167969 129.691406 196.585938 135.550781 C 197.59375 139.65625 197.929688 143.425781 196.699219 147.53125 C 196.066406 150.515625 194.496094 153.390625 193.042969 156.410156 C 191.734375 156.523438 190.390625 156.636719 189.160156 156.636719 C 189.144531 154.816406 189.40625 153.035156 189.945312 151.300781 C 190.054688 150.851562 190.28125 150.402344 189.832031 150.066406 C 189.382812 149.730469 188.824219 150.402344 188.714844 150.964844 C 188.179688 152.816406 187.855469 154.710938 187.742188 156.636719 C 186.511719 156.746094 185.390625 156.746094 184.195312 156.746094 C 183.691406 155.777344 183.28125 154.773438 182.964844 153.726562 C 182.183594 150.628906 182.070312 148.203125 182.070312 144.992188 C 182.628906 133.234375 188.488281 127.339844 188.488281 115.917969 Z M 184.121094 130.136719 C 183.898438 130.808594 183.636719 131.445312 183.414062 132.117188 C 183.1875 132.789062 183.300781 132.339844 183.1875 132.453125 C 180.09375 132.5625 176.957031 132.5625 173.859375 133.011719 C 165.535156 133.980469 156.914062 135.324219 148.480469 137.976562 C 145.71875 138.871094 142.808594 139.878906 140.382812 141.558594 C 138.925781 142.527344 137.507812 143.535156 136.613281 145.105469 C 136.390625 145.515625 137.0625 145.960938 137.398438 145.625 C 140.71875 141.335938 145.941406 139.765625 151.019531 138.3125 C 158.222656 136.222656 165.761719 135.101562 172.777344 134.207031 C 175.875 133.683594 179.421875 133.683594 182.855469 133.570312 C 182.070312 135.324219 181.0625 137.863281 180.839844 139.765625 C 180.613281 141.671875 180.539062 144.542969 180.652344 146.96875 C 180.761719 149.394531 181.0625 152.753906 181.957031 155.515625 C 182.125 155.9375 182.308594 156.347656 182.519531 156.746094 L 180.425781 156.746094 C 177.335938 156.578125 174.265625 156.242188 171.210938 155.738281 C 168.558594 155.402344 166.207031 155.066406 163.558594 154.621094 C 160.910156 154.171875 157.699219 153.277344 154.675781 152.753906 C 151.652344 152.230469 148.480469 151.632812 145.496094 150.628906 C 143.929688 150.066406 142.175781 149.621094 140.941406 148.984375 C 140.382812 148.761719 139.933594 148.425781 139.488281 148.425781 C 139.316406 148.484375 139.21875 148.605469 139.195312 148.785156 C 139.167969 148.960938 139.230469 149.101562 139.375 149.207031 C 142.175781 150.515625 145.046875 151.410156 147.921875 152.304688 C 149.9375 152.753906 151.914062 153.089844 154.003906 153.5 C 157.25 154.171875 160.347656 154.957031 163.558594 155.628906 C 167.550781 156.410156 171.65625 156.859375 175.652344 157.269531 C 176.972656 157.496094 178.304688 157.605469 179.644531 157.605469 C 181.285156 157.71875 183.078125 157.71875 184.832031 157.71875 C 185.839844 157.71875 191.398438 157.492188 192.59375 157.382812 C 192.480469 157.492188 201.699219 157.046875 204.460938 156.859375 C 207.222656 156.671875 208.902344 156.1875 211.253906 155.964844 C 215.433594 155.402344 220.210938 154.84375 224.765625 154.0625 C 226.964844 153.5 229.09375 152.753906 231.296875 152.082031 C 232.101562 151.753906 232.886719 151.382812 233.648438 150.964844 C 233.816406 150.761719 233.851562 150.535156 233.757812 150.292969 C 233.691406 150.171875 233.597656 150.089844 233.46875 150.046875 C 233.335938 150.003906 233.210938 150.011719 233.085938 150.066406 L 231.855469 150.628906 C 229.226562 151.675781 226.527344 152.496094 223.757812 153.089844 C 217.671875 154.0625 211.441406 154.84375 205.695312 155.738281 C 202.035156 156.1875 198.378906 156.074219 194.609375 156.300781 C 195.28125 154.957031 195.953125 153.5 196.476562 152.195312 C 198.9375 146.410156 199.722656 141.335938 198.15625 135.214844 C 197.929688 134.429688 197.820312 133.683594 197.59375 133.011719 C 199.945312 133.011719 202.371094 133.125 204.6875 133.347656 C 208.34375 133.683594 212 134.09375 215.660156 134.542969 C 216.105469 134.542969 216.441406 134.765625 216.890625 134.652344 C 217.339844 134.542969 217.226562 134.429688 217.226562 134.207031 C 217.226562 133.980469 216.777344 133.796875 216.441406 133.796875 L 215.136719 133.570312 C 212.226562 133.234375 209.6875 132.789062 206.589844 132.453125 C 203.492188 132.117188 200.355469 132.003906 197.257812 131.890625 C 197.109375 131.371094 196.886719 130.882812 196.699219 130.398438 C 221.070312 131.667969 240.289062 137.902344 240.289062 145.214844 C 240.289062 153.164062 217.226562 159.84375 189.609375 160.179688 C 187.242188 160.3125 184.878906 160.273438 182.519531 160.070312 C 156.132812 159.285156 134.746094 152.753906 134.746094 145.105469 C 134.746094 137.453125 157.027344 130.660156 184.121094 130.136719 Z M 188.414062 164.0625 C 187.964844 163.316406 187.628906 162.605469 187.21875 161.933594 L 188.152344 161.933594 C 188.226562 162.644531 188.339844 163.351562 188.414062 164.0625 Z M 190.765625 161.898438 C 190.503906 162.683594 190.28125 163.429688 190.054688 164.285156 L 190.054688 164.398438 C 189.972656 164.144531 189.933594 163.882812 189.945312 163.613281 C 189.871094 163.054688 189.796875 162.457031 189.683594 161.933594 Z M 240.402344 152.304688 C 240.289062 162.046875 240.289062 172.160156 239.84375 182.125 C 239.617188 186.007812 239.617188 190.113281 239.617188 193.882812 C 239.617188 196.308594 239.507812 198.996094 239.507812 201.53125 C 239.394531 204.964844 239.28125 208.398438 239.058594 211.722656 C 238.945312 214.296875 238.722656 216.945312 238.722656 219.484375 C 238.5 223.03125 238.386719 226.910156 238.089844 231.238281 C 237.996094 231.683594 237.957031 232.132812 237.976562 232.582031 C 237.886719 233.625 237.738281 234.65625 237.527344 235.679688 C 237.082031 237.023438 236.410156 238.105469 235.738281 239.449219 C 233.3125 243.78125 229.09375 248.222656 226.445312 250.199219 C 220.324219 254.640625 208.457031 258.855469 197.371094 260.3125 C 184.945312 261.953125 172.554688 261.058594 162.664062 257.738281 C 156.132812 255.535156 148.59375 251.207031 144.601562 247.4375 C 142.808594 245.644531 140.382812 241.988281 138.816406 239.339844 C 138.074219 238.179688 137.453125 236.960938 136.949219 235.679688 C 136.738281 234.621094 136.585938 233.550781 136.5 232.472656 C 136.40625 232.027344 136.371094 231.582031 136.390625 231.128906 C 136.054688 226.796875 135.941406 222.917969 135.71875 219.371094 C 135.605469 216.722656 135.492188 214.183594 135.382812 211.609375 C 135.15625 208.289062 135.046875 204.855469 134.933594 201.421875 C 134.820312 198.882812 134.820312 196.195312 134.820312 193.769531 C 134.746094 189.886719 134.746094 185.894531 134.636719 182.015625 C 134.1875 172.050781 134.074219 161.933594 134.074219 152.195312 C 134.074219 150.964844 134.039062 149.730469 134.039062 148.5 C 138.964844 156.746094 162.253906 161.636719 185.464844 161.933594 C 185.894531 162.542969 186.28125 163.175781 186.621094 163.839844 C 187.394531 165.113281 188.054688 166.445312 188.601562 167.832031 C 188.632812 169.539062 188.496094 171.230469 188.191406 172.90625 C 188.191406 173.019531 188.191406 173.132812 188.078125 173.132812 C 187.238281 172.984375 186.414062 172.761719 185.617188 172.460938 C 184.308594 172.160156 183.859375 174.027344 185.054688 174.363281 C 186.25 174.699219 187.40625 175.148438 188.714844 175.148438 C 190.019531 175.148438 192.296875 174.699219 192.929688 174.027344 C 193.566406 173.355469 192.929688 172.460938 192.296875 172.683594 L 190.953125 173.019531 C 190.621094 173.113281 190.285156 173.148438 189.945312 173.132812 C 190.054688 172.683594 190.054688 172.273438 190.167969 171.824219 C 190.246094 171.6875 190.285156 171.539062 190.28125 171.378906 C 190.503906 169.808594 190.617188 168.914062 190.726562 168.054688 C 191.050781 166.015625 191.539062 164.011719 192.183594 162.046875 L 192.257812 161.898438 C 213.605469 161.300781 234.503906 156.898438 240.476562 149.542969 C 240.441406 150.441406 240.441406 151.375 240.402344 152.304688 Z M 240.402344 152.304688 " fill-opacity="1" fill-rule="nonzero"/></g><path fill="#1c0c0c" d="M 141.726562 231.6875 C 141.820312 231.699219 141.910156 231.691406 141.996094 231.660156 C 142.085938 231.632812 142.164062 231.585938 142.226562 231.519531 C 142.292969 231.453125 142.34375 231.375 142.371094 231.285156 C 142.402344 231.199219 142.410156 231.109375 142.398438 231.015625 C 142.472656 231.351562 142.398438 230.902344 142.398438 230.792969 C 142.394531 230.691406 142.355469 230.605469 142.285156 230.53125 L 142.285156 230.230469 C 141.726562 225.828125 140.832031 219.035156 140.382812 213.738281 C 140.160156 205.636719 139.488281 197.652344 139.261719 189.664062 C 139.152344 186.007812 139.039062 182.238281 139.039062 178.582031 C 139.039062 177.125 139.039062 175.707031 138.925781 174.363281 C 138.925781 174.25 138.816406 174.027344 138.703125 174.027344 C 138.554688 173.847656 138.371094 173.800781 138.152344 173.882812 C 137.933594 173.96875 137.832031 174.128906 137.84375 174.363281 C 137.621094 185.222656 137.734375 195.972656 138.40625 206.757812 C 138.464844 212.578125 138.863281 218.375 139.597656 224.148438 C 139.933594 226.351562 140.046875 228.589844 140.496094 230.792969 C 140.605469 231.128906 140.605469 231.464844 140.941406 231.6875 C 141.203125 231.804688 141.464844 231.804688 141.726562 231.6875 Z M 141.726562 231.6875 " fill-opacity="1" fill-rule="nonzero"/><path fill="#1c0c0c" d="M 234.839844 181.566406 C 234.730469 179.476562 234.503906 177.347656 234.320312 175.257812 C 234.359375 174.960938 234.246094 174.734375 233.984375 174.585938 C 233.085938 174.363281 233.3125 175.59375 233.3125 176.042969 C 233.421875 177.460938 233.535156 178.917969 233.535156 180.222656 C 233.648438 183.023438 233.871094 185.671875 233.984375 188.433594 C 234.09375 194.554688 233.871094 200.636719 233.757812 206.757812 C 233.648438 213.960938 233.757812 221.835938 232.75 227.695312 C 232.191406 231.128906 231.742188 234.5625 230.625 237.882812 C 230.214844 239.226562 229.765625 240.011719 228.980469 241.539062 C 228.828125 241.746094 228.792969 241.96875 228.871094 242.210938 C 229.09375 242.882812 230.101562 243.109375 230.4375 242.4375 C 232.414062 238.890625 233.3125 235.007812 233.871094 231.015625 C 235.289062 224.484375 235.625 217.839844 235.625 211.273438 C 235.625 204.703125 235.511719 197.089844 235.402344 190 C 235.289062 187.125 234.839844 184.328125 234.839844 181.566406 Z M 234.839844 181.566406 " fill-opacity="1" fill-rule="nonzero"/><path fill="#1c0c0c" d="M 140.160156 170.144531 C 141.503906 168.390625 142.808594 167.71875 144.9375 166.601562 C 148.257812 165.03125 153.480469 164.511719 157.476562 163.839844 L 159.117188 163.503906 C 159.339844 163.390625 159.566406 163.167969 159.566406 163.054688 C 159.585938 162.960938 159.585938 162.867188 159.558594 162.773438 C 159.53125 162.679688 159.484375 162.601562 159.414062 162.53125 C 159.347656 162.464844 159.265625 162.417969 159.175781 162.390625 C 159.082031 162.363281 158.988281 162.359375 158.894531 162.382812 C 153.707031 162.941406 148.257812 163.167969 143.480469 165.480469 C 141.613281 166.375 139.824219 167.496094 138.816406 169.25 C 138.40625 170.035156 139.597656 170.707031 140.160156 170.144531 Z M 140.160156 170.144531 " fill-opacity="1" fill-rule="nonzero"/><path fill="#1c0c0c" d="M 228.980469 175.257812 C 228.929688 175.09375 228.828125 174.976562 228.667969 174.910156 C 228.507812 174.84375 228.351562 174.847656 228.199219 174.921875 C 227.714844 175.082031 227.242188 175.269531 226.78125 175.484375 C 224.558594 176.257812 222.292969 176.878906 219.988281 177.347656 C 208.792969 180.109375 199.386719 181.117188 187.855469 181.117188 C 184.609375 181.117188 181.511719 181.230469 178.300781 180.894531 C 175.089844 180.558594 171.992188 180.222656 168.785156 179.925781 C 161.65625 179.253906 155.460938 179.027344 148.703125 177.460938 C 146.914062 176.902344 145.046875 176.339844 143.816406 175.707031 C 143.144531 175.371094 142.523438 174.960938 141.949219 174.476562 C 141.773438 174.382812 141.585938 174.34375 141.390625 174.363281 C 141.121094 174.449219 140.960938 174.632812 140.910156 174.910156 C 140.859375 175.191406 140.945312 175.417969 141.167969 175.59375 C 144.265625 177.796875 148.144531 178.804688 151.800781 179.476562 C 156.761719 180.289062 161.75 180.835938 166.769531 181.117188 C 171.097656 181.453125 175.425781 182.238281 179.867188 182.460938 C 194.273438 183.023438 207.671875 182.351562 221.441406 178.355469 C 223.898438 177.621094 226.300781 176.738281 228.644531 175.707031 C 228.871094 175.820312 229.09375 175.484375 228.980469 175.257812 Z M 228.980469 175.257812 " fill-opacity="1" fill-rule="nonzero"/><path fill="#1c0c0c" d="M 222.898438 163.613281 C 225.210938 163.773438 227.421875 164.320312 229.542969 165.257812 C 231.183594 166.152344 231.519531 166.265625 232.191406 167.609375 C 232.328125 168 232.4375 168.398438 232.527344 168.800781 L 232.527344 169.699219 C 232.414062 170.144531 232.078125 170.59375 232.191406 171.042969 C 232.21875 171.246094 232.304688 171.414062 232.457031 171.554688 C 232.605469 171.695312 232.78125 171.773438 232.984375 171.785156 C 233.191406 171.800781 233.375 171.746094 233.542969 171.628906 C 233.707031 171.507812 233.816406 171.351562 233.871094 171.152344 C 234.617188 169.25 234.09375 167.160156 232.863281 165.59375 C 231.632812 164.023438 230.4375 163.839844 228.980469 163.277344 C 227.371094 162.644531 225.703125 162.234375 223.980469 162.046875 C 223.421875 162.046875 222.675781 161.710938 222.226562 162.160156 C 222.101562 162.285156 222.027344 162.4375 221.996094 162.613281 C 221.964844 162.789062 221.988281 162.957031 222.0625 163.117188 C 222.136719 163.28125 222.25 163.40625 222.402344 163.496094 C 222.554688 163.585938 222.722656 163.625 222.898438 163.613281 Z M 222.898438 163.613281 " fill-opacity="1" fill-rule="nonzero"/></svg>